<svg id="Group_20" data-name="Group 20" xmlns="http://www.w3.org/2000/svg" width="50.922" height="49.842" viewBox="0 0 50.922 49.842">
  <path id="Path_94" data-name="Path 94" d="M1837.121,342.6c0-3.693-.007-7.387.011-11.08a.53.53,0,0,0-.474-.61c-.984-.276-1.961-.58-2.939-.88a1.052,1.052,0,0,1-.838-1.113q-.007-6.059,0-12.119a1.052,1.052,0,0,1,.781-1.114q4.146-1.558,8.3-3.11a1.266,1.266,0,0,1,.927,0q4.127,1.55,8.255,3.1a1.078,1.078,0,0,1,.819,1.216c0,1.919.01,3.838-.007,5.757,0,.361.1.46.461.459q5.93-.018,11.86,0c.366,0,.459-.11.456-.465-.016-1.9-.009-3.809-.007-5.713a1.111,1.111,0,0,1,.905-1.281q4.005-1.5,8.008-3.013a1.613,1.613,0,0,1,1.214-.014c2.693,1.021,5.393,2.024,8.089,3.039a1.08,1.08,0,0,1,.858,1.229q.005,6.168.006,12.335c0,.806-.232,1.1-1.025,1.311-.92.24-1.838.5-2.769.687-.393.081-.456.253-.456.606q.014,10.8.007,21.6c0,1.187-.3,1.493-1.474,1.493-3.246,0-6.493.007-9.739-.009-.386,0-.484.105-.476.485.025,1.211.012,2.424.008,3.635a1.079,1.079,0,0,1-.938,1.207q-4.107,1.032-8.218,2.053a1.555,1.555,0,0,1-.852-.038q-4.029-1.229-8.061-2.448c-.8-.242-1.006-.526-1.007-1.38,0-1.01-.019-2.02.009-3.029.01-.381-.091-.486-.477-.484-3.318.016-6.637.007-9.955.011a1.192,1.192,0,0,1-1.089-.491,1.323,1.323,0,0,1-.169-.789q0-5.518,0-11.037m2.1-.343c0,3.362,0,6.724-.007,10.086,0,.349.08.469.451.467q4.351-.022,8.7,0c.331,0,.443-.077.44-.431-.019-1.876-.009-3.752-.009-5.627,0-.888.163-1.119,1.006-1.435q3.987-1.493,7.971-2.992a1.466,1.466,0,0,1,1.09-.019q4.064,1.531,8.13,3.057a1.123,1.123,0,0,1,.879,1.308c0,1.876.015,3.752-.01,5.627-.006.434.131.517.534.514,2.828-.017,5.657-.009,8.485-.009.567,0,.568,0,.568-.551q0-9.913,0-19.826c0-.087-.006-.174,0-.26.019-.246-.077-.293-.31-.23-.737.2-1.48.376-2.221.565a2.02,2.02,0,0,1-1.144.037c-2.725-.842-5.455-1.666-8.183-2.5a1.077,1.077,0,0,1-.875-1.172c0-1.1-.012-2.193.005-3.29,0-.3-.09-.388-.39-.387q-6,.013-11.991,0c-.3,0-.4.076-.393.384.017,1.169.007,2.338.007,3.506,0,1-.206,1.252-1.182,1.495-2.532.629-5.065,1.255-7.592,1.9a2.446,2.446,0,0,1-1.518-.027c-.635-.233-1.293-.4-1.942-.594-.5-.149-.5-.149-.5.357q0,5.021,0,10.043m10.63-18.793q0-2.337,0-4.673c0-.544,0-.548-.493-.365-1.835.686-3.666,1.384-5.506,2.055a.505.505,0,0,0-.393.564q.014,4.348,0,8.7c0,.4.119.457.482.365,1.842-.47,3.688-.923,5.534-1.372a.437.437,0,0,0,.384-.512c-.014-1.586-.007-3.173-.006-4.759m15.926,29.695c0-1.6,0-3.2,0-4.8,0-.268-.008-.4-.35-.273-1.9.726-3.8,1.433-5.708,2.135a.458.458,0,0,0-.339.512q.013,4.414,0,8.828c0,.281.04.377.364.294,1.869-.483,3.744-.946,5.621-1.4a.455.455,0,0,0,.416-.53c-.017-1.587-.008-3.173-.008-4.76m15.924-29.7q0-2.357,0-4.714c0-.494,0-.5-.487-.319-1.862.7-3.72,1.4-5.586,2.084a.42.42,0,0,0-.319.474q.01,4.39,0,8.78c0,.378.118.438.455.352q2.763-.7,5.533-1.377a.451.451,0,0,0,.417-.524c-.02-1.586-.009-3.172-.009-4.757m-14.882-.212c0,1.529,0,3.058-.005,4.587,0,.251.058.4.316.474q2.834.853,5.663,1.726c.281.086.417.053.416-.3q-.015-4.392,0-8.784a.409.409,0,0,0-.314-.442q-2.836-1.053-5.662-2.133c-.3-.116-.425-.1-.42.281.019,1.529.008,3.058.008,4.587m-31.849-.039c0,1.542,0,3.085,0,4.627,0,.22.018.379.273.455q2.9.87,5.783,1.763c.279.086.34.01.339-.268q-.013-4.411,0-8.821a.4.4,0,0,0-.3-.447q-2.876-1.064-5.742-2.157c-.306-.117-.36-.031-.358.265.011,1.528.005,3.056.005,4.584m22.31,31.849c0-1.413-.015-2.825.01-4.237a.581.581,0,0,0-.459-.649c-1.838-.674-3.673-1.355-5.5-2.061-.407-.157-.447-.036-.445.329.01,3,.015,6,0,8.994a.568.568,0,0,0,.5.648c1.823.538,3.642,1.085,5.454,1.659.413.131.455,0,.452-.358-.013-1.441-.005-2.883-.005-4.324m-4.362-8.6c1.79.672,3.5,1.314,5.212,1.962a.656.656,0,0,0,.5-.032c1.077-.408,2.157-.809,3.235-1.214.609-.229,1.217-.46,1.877-.71a1.381,1.381,0,0,0-.2-.133q-2.487-.938-4.974-1.872a.731.731,0,0,0-.544.036c-1.158.439-2.322.862-3.477,1.308a11.892,11.892,0,0,0-1.627.655M1837,316.685a2.952,2.952,0,0,0,.3.163c1.629.615,3.26,1.225,4.887,1.845a.713.713,0,0,0,.54-.031q2.344-.881,4.688-1.763c.125-.047.3-.042.343-.239q-2.566-.965-5.131-1.93a.554.554,0,0,0-.417.006c-1.71.644-3.422,1.282-5.206,1.949m31.912-.023c.056.163.183.171.287.211,1.59.6,3.182,1.2,4.77,1.8a.868.868,0,0,0,.662-.039c1.414-.535,2.833-1.056,4.246-1.6.2-.077.563-.073.554-.3-.007-.18-.351-.269-.573-.353-1.213-.456-2.441-.878-3.633-1.386a2.094,2.094,0,0,0-1.924.009,7.875,7.875,0,0,1-.887.34l-3.5,1.316" transform="translate(-1832.877 -312.488)" fill="#002f4f"/>
  <path id="Path_95" data-name="Path 95" d="M2046.774,725.116c-1.838-.674-3.673-1.355-5.5-2.061-.407-.157-.446-.036-.445.329.01,3,.015,6,0,8.994a.568.568,0,0,0,.5.648c1.823.538,3.643,1.085,5.454,1.659.412.131.456,0,.452-.358-.013-1.441-.005-2.883-.005-4.324,0-1.412-.015-2.825.01-4.237a.581.581,0,0,0-.459-.649" transform="translate(-2022.817 -687.436)" fill="#008c98"/>
  <path id="Path_96" data-name="Path 96" d="M2138.977,734.451c0,.281.04.377.364.294,1.87-.483,3.744-.946,5.621-1.4a.455.455,0,0,0,.415-.53c-.017-1.587-.008-3.173-.008-4.76s0-3.2,0-4.8c0-.268-.008-.4-.351-.273-1.9.726-3.8,1.433-5.708,2.135a.458.458,0,0,0-.339.512q.013,4.414,0,8.828" transform="translate(-2112.466 -687.38)" fill="#00a1af"/>
  <path id="Path_97" data-name="Path 97" d="M2070.035,685.118c1.077-.408,2.157-.809,3.235-1.214.609-.229,1.217-.46,1.877-.71a1.409,1.409,0,0,0-.2-.133q-2.487-.937-4.974-1.872a.731.731,0,0,0-.543.036c-1.158.438-2.323.862-3.478,1.308a11.891,11.891,0,0,0-1.627.655c1.79.673,3.5,1.314,5.212,1.962a.657.657,0,0,0,.5-.032" transform="translate(-2044.28 -649.224)" fill="#008c98"/>
  <path id="Path_98" data-name="Path 98" d="M2323.284,391.574q2.763-.7,5.533-1.377a.452.452,0,0,0,.417-.524c-.02-1.586-.009-3.172-.009-4.757s0-3.143,0-4.714c0-.494,0-.5-.487-.319-1.862.7-3.72,1.4-5.586,2.084a.42.42,0,0,0-.319.474q.01,4.39,0,8.78c0,.378.118.438.455.352" transform="translate(-2280.397 -373.947)" fill="#00a1af"/>
  <path id="Path_99" data-name="Path 99" d="M2258.958,340.418c-1.213-.457-2.441-.878-3.633-1.386a2.094,2.094,0,0,0-1.924.009,7.822,7.822,0,0,1-.887.34l-3.5,1.316c.057.163.183.171.287.211,1.59.6,3.182,1.2,4.77,1.8a.868.868,0,0,0,.662-.039c1.414-.535,2.833-1.056,4.246-1.6.2-.077.564-.074.555-.3-.007-.18-.351-.27-.573-.353" transform="translate(-2212.973 -336.523)" fill="#008c98"/>
  <path id="Path_100" data-name="Path 100" d="M2224.745,380.1c.02,1.529.008,3.058.008,4.587s0,3.058-.005,4.587c0,.251.058.4.316.474q2.834.853,5.663,1.726c.281.086.417.053.416-.3q-.015-4.392,0-8.784a.408.408,0,0,0-.313-.442q-2.836-1.054-5.662-2.133c-.3-.116-.425-.1-.42.281" transform="translate(-2190.807 -373.929)" fill="#008c98"/>
  <path id="Path_101" data-name="Path 101" d="M1885.743,337.978c-1.71.644-3.422,1.282-5.206,1.949a2.944,2.944,0,0,0,.3.163c1.629.615,3.26,1.225,4.887,1.845a.714.714,0,0,0,.54-.031q2.344-.881,4.688-1.763c.125-.047.3-.042.343-.239q-2.566-.965-5.131-1.93a.554.554,0,0,0-.417.006" transform="translate(-1876.409 -335.73)" fill="#008c98"/>
  <path id="Path_102" data-name="Path 102" d="M1955.563,391.608c1.842-.47,3.688-.923,5.535-1.372a.437.437,0,0,0,.384-.512c-.014-1.586-.007-3.173-.007-4.759q0-2.337,0-4.673c0-.544,0-.548-.493-.364-1.835.686-3.666,1.384-5.507,2.055a.505.505,0,0,0-.393.564q.014,4.348,0,8.7c0,.4.119.457.482.365" transform="translate(-1944.498 -373.988)" fill="#00a1af"/>
  <path id="Path_103" data-name="Path 103" d="M1857.3,389.659q2.9.87,5.784,1.763c.279.086.34.01.339-.268q-.013-4.411,0-8.821a.4.4,0,0,0-.3-.447q-2.876-1.064-5.742-2.157c-.306-.117-.36-.031-.358.265.011,1.528.005,3.056.005,4.584s0,3.085,0,4.627c0,.22.018.379.273.455" transform="translate(-1854.93 -373.86)" fill="#008c98"/>
</svg>
