<svg id="Group_17" data-name="Group 17" xmlns="http://www.w3.org/2000/svg" width="49.863" height="49.829" viewBox="0 0 49.863 49.829">
  <path id="Path_75" data-name="Path 75" d="M90.66,743.39c-2.366,0-4.733,0-7.1,0a1.05,1.05,0,0,1-1.1-1.4.956.956,0,0,1,.787-.66,4.962,4.962,0,0,1,.732-.043c1.717,0,3.434-.011,5.151.006.349,0,.438-.1.436-.443q-.022-3.095,0-6.19a.443.443,0,0,0-.384-.508c-2.318-.693-4.63-1.408-6.945-2.111-.764-.232-.985-.511-.986-1.3,0-1.515-.01-3.03.006-4.545,0-.343-.068-.477-.447-.473q-3.16.027-6.32,0c-.37,0-.455.114-.452.466.016,1.9.011,3.809,0,5.714a1,1,0,0,1-.713,1.021,1.039,1.039,0,0,1-1.176-.3,1.1,1.1,0,0,1-.261-.759q0-7.142,0-14.284a1.076,1.076,0,1,1,2.148.027c.007,1.861.012,3.723,0,5.584,0,.345.1.439.437.437q3.181-.021,6.363,0c.319,0,.425-.083.419-.413-.024-1.385-.019-2.77-.029-4.154a1.086,1.086,0,0,1,.824-1.123c2.374-.888,4.745-1.783,7.123-2.658a.5.5,0,0,0,.392-.555q-.021-3.116,0-6.233c0-.355-.113-.436-.446-.433-1.789.014-3.578.008-5.367.005a3.637,3.637,0,0,1-.56-.035,1.026,1.026,0,0,1-.906-1.042,1.067,1.067,0,0,1,.948-1.017,3.085,3.085,0,0,1,.389-.009H97.518a1.766,1.766,0,0,1,.722.1,1.021,1.021,0,0,1,.634.991.983.983,0,0,1-.753.945,3.039,3.039,0,0,1-.686.067c-1.76.005-3.521.01-5.281,0-.329,0-.453.071-.45.43.017,2.092.014,4.184,0,6.276a.472.472,0,0,0,.37.528c2.324.854,4.641,1.729,6.962,2.594a1.153,1.153,0,0,1,.911,1.364c-.02,1.342,0,2.684-.014,4.025,0,.264.085.35.348.349q3.289-.012,6.579,0c.329,0,.372-.139.371-.415q-.012-2.857,0-5.714a1.065,1.065,0,0,1,1.541-1.034,1,1,0,0,1,.588.8,3.012,3.012,0,0,1,.018.432q0,6.926,0,13.851a1.2,1.2,0,0,1-.534,1.194,1.068,1.068,0,0,1-1.616-1c-.012-1.63,0-3.261,0-4.891,0-1.124,0-1.124-1.122-1.124-1.9,0-3.809.009-5.714-.008-.359,0-.465.1-.461.46.018,1.674.01,3.347.007,5.021a1.092,1.092,0,0,1-1,1.281q-3.438.863-6.879,1.717a.385.385,0,0,0-.354.44q.013,3.138,0,6.276c0,.33.14.375.416.374,1.789-.008,3.578-.005,5.367,0a3.73,3.73,0,0,1,.56.031,1,1,0,0,1,.927,1.06,1.034,1.034,0,0,1-1,1c-.3.023-.606.009-.909.009H90.66m7.208-17.809c0-1.572,0-3.144,0-4.716,0-.248-.022-.392-.334-.274q-2.762,1.05-5.533,2.076a.461.461,0,0,0-.358.5q.015,4.3,0,8.61c0,.334.1.38.41.3q2.722-.7,5.452-1.356a.4.4,0,0,0,.366-.471c-.014-1.557-.007-3.115-.007-4.673m-14.547-.223c0,1.485,0,2.971,0,4.456,0,.256.035.415.331.5q2.734.808,5.454,1.664c.374.118.439.01.438-.341q-.015-4.218,0-8.436a.509.509,0,0,0-.4-.562q-2.714-.994-5.415-2.022c-.335-.128-.419-.075-.415.283.015,1.485.006,2.971.006,4.456M85.4,718.9l.01.1q2.456.924,4.911,1.849a.841.841,0,0,0,.627-.033c1.331-.505,2.666-1,4-1.5a3.646,3.646,0,0,0,.871-.373,1.443,1.443,0,0,0-.183-.109q-2.405-.91-4.811-1.818a.72.72,0,0,0-.542.041c-1.091.413-2.185.818-3.278,1.228-.535.2-1.068.408-1.6.612" transform="translate(-65.663 -699.778)" fill="#002f4f"/>
  <path id="Path_76" data-name="Path 76" d="M300.428,885.993q2.722-.7,5.452-1.356a.4.4,0,0,0,.366-.471c-.014-1.557-.007-3.115-.007-4.673s0-3.144,0-4.716c0-.248-.022-.392-.334-.274q-2.762,1.05-5.533,2.077a.461.461,0,0,0-.358.5q.015,4.3,0,8.61c0,.334.1.38.41.3" transform="translate(-274.035 -853.69)" fill="#00a1af"/>
  <path id="Path_77" data-name="Path 77" d="M209.654,876.622q-2.714-.994-5.415-2.022c-.335-.128-.419-.075-.415.283.015,1.485.006,2.971.006,4.456s0,2.971,0,4.456c0,.256.035.415.331.5q2.735.808,5.454,1.664c.374.117.439.01.438-.341q-.015-4.218,0-8.436a.509.509,0,0,0-.4-.562" transform="translate(-186.171 -853.758)" fill="#008c98"/>
  <path id="Path_78" data-name="Path 78" d="M233.493,837.109c1.331-.505,2.666-1,4-1.5a3.649,3.649,0,0,0,.871-.374,1.448,1.448,0,0,0-.183-.109q-2.405-.91-4.811-1.818a.72.72,0,0,0-.542.041c-1.091.413-2.185.818-3.278,1.228-.535.2-1.068.408-1.6.612l.01.1q2.456.924,4.911,1.85a.841.841,0,0,0,.627-.033" transform="translate(-208.205 -816.064)" fill="#008c98"/>
  <path id="Path_79" data-name="Path 79" d="M7.278,634.615a7.154,7.154,0,0,1,7.258,7.286A7.268,7.268,0,0,1,0,641.918a7.139,7.139,0,0,1,7.279-7.3m-.01,2.039a5.183,5.183,0,0,0-5.194,5.112,5.116,5.116,0,0,0,5.208,5.254,5.135,5.135,0,0,0,5.183-5.2,5.2,5.2,0,0,0-5.2-5.162" transform="translate(0 -634.615)" fill="#002f4f"/>
  <path id="Path_80" data-name="Path 80" d="M415.206,634.613a7.136,7.136,0,0,1,7.237,7.343,7.268,7.268,0,0,1-14.536-.1,7.154,7.154,0,0,1,7.3-7.245m-.028,2.039a5.2,5.2,0,0,0-5.2,5.115,5.2,5.2,0,1,0,5.2-5.115" transform="translate(-372.58 -634.613)" fill="#002f4f"/>
  <path id="Path_81" data-name="Path 81" d="M7.267,1042.536a7.168,7.168,0,0,1,7.273,7.319,7.269,7.269,0,0,1-14.536,0,7.157,7.157,0,0,1,7.263-7.323m-5.189,7.173a5.108,5.108,0,0,0,5.183,5.235,5.128,5.128,0,0,0,5.208-5.22,5.2,5.2,0,0,0-10.391-.015" transform="translate(-0.004 -1007.208)" fill="#002f4f"/>
  <path id="Path_82" data-name="Path 82" d="M415.351,1042.551a7.091,7.091,0,0,1,7.144,7.509,7.255,7.255,0,0,1-14.505-.379,7.1,7.1,0,0,1,7.362-7.131m5.088,7.249a5.2,5.2,0,0,0-10.39-.141,5.2,5.2,0,1,0,10.39.141" transform="translate(-372.65 -1007.222)" fill="#002f4f"/>
</svg>
