<svg id="Group_22" data-name="Group 22" xmlns="http://www.w3.org/2000/svg" width="49.885" height="49.864" viewBox="0 0 49.885 49.864">
  <path id="Path_90" data-name="Path 90" d="M849.617,6.419a12.118,12.118,0,0,1,2.322-1.6A10.949,10.949,0,0,1,866.15,8.931a.808.808,0,0,0,.584.435,6.852,6.852,0,0,1-.365,13.405,8.579,8.579,0,0,1-1.422.1c-5.412,0-10.823.007-16.235-.011-.455,0-.55.133-.545.561.023,1.876.016,3.752,0,5.628a.58.58,0,0,0,.391.624c2.372,1.083,4.736,2.185,7.1,3.281a1.152,1.152,0,0,1,.757,1.265c-.019,1.63-.008,3.261-.018,4.891,0,.235.062.337.316.336q2.294-.012,4.589,0c.261,0,.311-.118.309-.344-.008-.851-.006-1.7,0-2.554s.391-1.241,1.246-1.241q3.94,0,7.879,0c.864,0,1.252.378,1.254,1.231q.006,3.961,0,7.922c0,.856-.387,1.232-1.252,1.232q-3.94,0-7.879,0c-.859,0-1.242-.381-1.247-1.239-.005-.837-.014-1.674.005-2.511.007-.31-.1-.391-.4-.389-1.472.012-2.944.015-4.416,0-.335,0-.412.109-.407.424.017,1.14.008,2.28.006,3.42a1.1,1.1,0,0,1-.858,1.276q-4.03,1.558-8.065,3.107a1.182,1.182,0,0,1-.884-.016q-4.01-1.548-8.023-3.091a1.085,1.085,0,0,1-.862-1.228c0-1.154-.011-2.309.005-3.463,0-.308-.062-.432-.4-.428q-2.208.027-4.416,0c-.341,0-.409.122-.4.429.018.822.01,1.645,0,2.467-.005.859-.389,1.242-1.244,1.243q-3.94,0-7.879,0c-.883,0-1.255-.376-1.256-1.271q0-3.918,0-7.835c0-.914.372-1.279,1.292-1.279q3.9,0,7.793,0c.916,0,1.291.371,1.295,1.28,0,.837.009,1.674,0,2.511,0,.265.087.351.349.349q2.251-.014,4.5,0c.243,0,.368-.046.365-.331-.017-1.659-.01-3.318-.027-4.977a1.118,1.118,0,0,1,.724-1.157c2.392-1.108,4.782-2.222,7.18-3.317a.635.635,0,0,0,.437-.682q-.029-2.792,0-5.584c0-.408-.095-.537-.522-.535q-8.2.022-16.408.009a6.851,6.851,0,0,1-.848-13.662,1.4,1.4,0,0,1,.3-.025c.382.051.466-.163.534-.49A10.211,10.211,0,0,1,835.736.741a10.781,10.781,0,0,1,13.646,5.23c.07.14.145.277.235.449M847.06,20.8c0-.01,0-.019,0-.029.173.009.346.027.518.027,5.9,0,11.8.016,17.7-.01a4.763,4.763,0,0,0,.761-9.443,1.923,1.923,0,0,1-1.545-1.107A8.735,8.735,0,0,0,850.035,8.99a1.026,1.026,0,0,1-1.84-.331c-.04-.108-.071-.219-.106-.329a8.549,8.549,0,0,0-8.74-6.235A8.391,8.391,0,0,0,832.5,5.733a9.126,9.126,0,0,0-1.531,4.357c-.119,1.047-.488,1.317-1.521,1.19a4.773,4.773,0,1,0-.4,9.52q9,.015,18.005,0m7.275,19.437c0-1.441-.01-2.883.007-4.323,0-.357-.117-.375-.4-.266-1.823.706-3.646,1.413-5.477,2.1a.477.477,0,0,0-.355.54q.014,4.28,0,8.561c0,.381.092.437.44.3q2.7-1.051,5.407-2.064a.5.5,0,0,0,.384-.567c-.016-1.427-.007-2.853-.007-4.28M846,42.581c0-1.442-.005-2.883,0-4.325a.45.45,0,0,0-.34-.506c-1.831-.687-3.655-1.392-5.478-2.1-.322-.125-.411-.065-.409.293q.02,4.3,0,8.607a.479.479,0,0,0,.374.528c1.82.682,3.639,1.368,5.448,2.079.368.145.408.036.405-.292-.011-1.427,0-2.855,0-4.282m-18.7,1.047c.908,0,1.816-.013,2.724.007.32.007.422-.083.419-.411q-.022-2.723,0-5.447c0-.342-.124-.4-.43-.4q-2.7.018-5.4,0c-.321,0-.42.086-.417.412q.022,2.724,0,5.448c0,.343.123.405.428.4.893-.018,1.787-.006,2.681-.006m36.385-3.151c0,.922.011,1.845-.006,2.767-.006.305.1.392.4.39,1.83-.012,3.661-.009,5.492,0,.245,0,.364-.048.362-.33q-.015-2.789,0-5.578c0-.264-.084-.348-.348-.346q-2.767.013-5.535,0c-.291,0-.369.1-.365.377.013.908.005,1.816,0,2.724m-22.129-6.6c.058.052.086.092.123.107q2.573.987,5.147,1.971a.72.72,0,0,0,.544-.025q2.431-.937,4.863-1.874c.109-.042.3-.02.293-.189,0-.121-.165-.142-.266-.19-1.6-.75-3.21-1.493-4.809-2.252a.815.815,0,0,0-.772,0c-1.481.7-2.971,1.392-4.455,2.092a2.009,2.009,0,0,0-.669.36" transform="translate(-822.113 0.001)" fill="#002f4f"/>
  <path id="Path_91" data-name="Path 91" d="M1128.143,411.04c-1.823.706-3.646,1.413-5.477,2.1a.477.477,0,0,0-.354.54q.013,4.28,0,8.561c0,.381.092.437.44.3q2.7-1.052,5.407-2.064a.5.5,0,0,0,.384-.567c-.016-1.427-.007-2.853-.007-4.28s-.01-2.883.007-4.324c0-.357-.117-.375-.4-.266" transform="translate(-1096.312 -375.388)" fill="#00a1af"/>
  <path id="Path_92" data-name="Path 92" d="M1026.478,420.437c1.82.682,3.639,1.368,5.448,2.079.368.145.408.036.405-.292-.011-1.427,0-2.855,0-4.282s-.005-2.883,0-4.325a.45.45,0,0,0-.34-.506c-1.831-.687-3.655-1.392-5.478-2.1-.322-.125-.411-.065-.409.293q.02,4.3,0,8.607a.479.479,0,0,0,.374.528" transform="translate(-1008.437 -375.36)" fill="#008c98"/>
  <path id="Path_93" data-name="Path 93" d="M1046.746,364.358q2.573.987,5.147,1.97a.719.719,0,0,0,.544-.025q2.432-.937,4.863-1.874c.108-.042.3-.02.293-.189,0-.121-.165-.142-.266-.19-1.6-.75-3.21-1.493-4.809-2.252a.815.815,0,0,0-.772,0c-1.481.7-2.971,1.392-4.455,2.092a2.008,2.008,0,0,0-.669.36c.058.052.086.092.123.107" transform="translate(-1027.18 -330.376)" fill="#008c98"/>
</svg>
