<svg id="Group_18" data-name="Group 18" xmlns="http://www.w3.org/2000/svg" width="49.874" height="49.824" viewBox="0 0 49.874 49.824">
  <path id="Path_116" data-name="Path 116" d="M2303.8,1690.773c-1.327,0-2.655,0-3.982,0a1.052,1.052,0,0,1-1.193-1.2q-.007-3.982,0-7.964a1.068,1.068,0,0,1,1.224-1.219q3.961-.006,7.921,0c.848,0,1.229.394,1.233,1.257s.009,1.731,0,2.6c0,.26.074.353.342.352q3.008-.013,6.017,0c.263,0,.348-.08.345-.346-.019-1.543-.017-3.087-.036-4.63a1.2,1.2,0,0,1,.751-1.19c1.948-.9,3.887-1.817,5.835-2.717.238-.11.249-.277.249-.489q-.005-2.705,0-5.411,0-.108,0-.216c0-.84.41-1.35,1.069-1.343s1.045.513,1.045,1.366c0,1.847.009,3.694-.007,5.54a.578.578,0,0,0,.393.619c1.924.883,3.84,1.784,5.758,2.681a1.15,1.15,0,0,1,.69,1.142c-.018,1.558-.017,3.116-.035,4.673,0,.251.088.32.326.319q3.03-.01,6.06,0c.252,0,.318-.1.316-.333-.01-.88-.008-1.76,0-2.64.005-.835.39-1.23,1.215-1.231q3.983-.007,7.965,0a1.059,1.059,0,0,1,1.2,1.2q.007,3.982,0,7.964a1.061,1.061,0,0,1-1.219,1.217q-3.983,0-7.965,0a1.057,1.057,0,0,1-1.195-1.2c-.007-.837-.01-1.674,0-2.51,0-.277-.081-.38-.369-.379q-2.987.014-5.974,0c-.3,0-.367.113-.361.384.015.62.007,1.241,0,1.861a1.118,1.118,0,0,1-.857,1.283c-2.025.8-4.063,1.556-6.074,2.384a2.194,2.194,0,0,1-1.838,0c-1.994-.831-4.021-1.583-6.034-2.367a1.144,1.144,0,0,1-.915-1.329c0-.62-.009-1.241,0-1.861.005-.255-.07-.359-.342-.357q-3.008.013-6.017,0c-.272,0-.346.107-.343.36.01.837.009,1.674,0,2.51a1.066,1.066,0,0,1-1.221,1.218c-1.327,0-2.655,0-3.982,0m-.026-2.068c.938,0,1.875-.007,2.813,0,.259,0,.354-.072.352-.342q-.014-2.769,0-5.538c0-.289-.109-.371-.384-.37q-2.748.012-5.5,0c-.288,0-.368.1-.367.376q.015,2.748,0,5.5c0,.316.111.385.4.38.894-.016,1.789-.006,2.683-.006m42.646-3.125c0-.908-.01-1.817.006-2.725.006-.3-.084-.4-.391-.4q-2.726.019-5.451,0c-.293,0-.408.083-.406.392q.016,2.747,0,5.494c0,.292.1.362.376.361q2.747-.015,5.495,0c.319,0,.382-.115.377-.4-.015-.908-.005-1.817-.005-2.726m-23.9.953c0-1.1-.012-2.193.008-3.288a.535.535,0,0,0-.407-.6c-1.322-.495-2.64-1-3.948-1.534-.366-.148-.411-.032-.41.294q.012,3.35,0,6.7a.438.438,0,0,0,.317.485q2.039.777,4.069,1.579c.3.118.378.048.375-.26-.011-1.125,0-2.25,0-3.375m2.073-.021c0,1.125.007,2.251,0,3.376,0,.325.068.4.394.273q1.987-.8,3.992-1.546a.5.5,0,0,0,.378-.576c-.031-.82-.058-1.646-.036-2.462.038-1.37,0-2.739.028-4.109.008-.467-.032-.49-.457-.326-1.317.51-2.631,1.03-3.952,1.528a.457.457,0,0,0-.347.507c.012,1.111,0,2.222.005,3.333m3.157-7.152-3.986-1.893a.586.586,0,0,0-.534.061c-1.013.483-2.029.958-3.043,1.438-.239.113-.473.236-.732.366.074.069.1.109.135.123,1.246.485,2.495.964,3.739,1.455a.742.742,0,0,0,.58-.041q1.286-.5,2.571-1.006c.383-.15.764-.3,1.27-.5" transform="translate(-2298.619 -1642.973)" fill="#002f4f"/>
  <path id="Path_117" data-name="Path 117" d="M2367.379,1394.024h-19.346c-1.1,0-1.424-.32-1.424-1.412q0-1.753,0-3.506c0-.97.355-1.32,1.341-1.321,1.89,0,3.78-.022,5.669.015.47.009.573-.2.671-.567.639-2.379,1.272-4.759,1.945-7.128a5.053,5.053,0,0,1,4.823-3.725q6.318-.059,12.637,0a5.132,5.132,0,0,1,4.938,3.989c.623,2.323,1.267,4.641,1.879,6.967.1.367.261.461.623.457,1.861-.018,3.722-.009,5.583-.008,1.151,0,1.451.305,1.452,1.471s0,2.337,0,3.506c0,.879-.383,1.261-1.271,1.261q-9.76,0-19.519,0m-.035-6.235h10.214c1.047,0,.925.07.671-.912-.539-2.087-1.117-4.165-1.7-6.241a3.18,3.18,0,0,0-2.911-2.193q-6.232-.008-12.464,0a3.2,3.2,0,0,0-2.95,2.314c-.186.723-.393,1.441-.587,2.163-.388,1.443-.781,2.885-1.155,4.333-.137.53-.115.536.449.537h10.43m.045,4.167h18.094c.115,0,.231-.007.346,0,.207.014.278-.081.275-.282-.008-.461-.024-.925,0-1.385.021-.345-.092-.439-.435-.437-2.177.015-4.355.008-6.533.008h-23.505c-.288,0-.576.02-.864.019q-2.9-.007-5.8-.023c-.226,0-.307.078-.3.3a10.336,10.336,0,0,1-.005,1.254c-.041.435.094.554.541.553q9.09-.025,18.181-.011" transform="translate(-2342.452 -1376.351)" fill="#002f4f"/>
  <path id="Path_118" data-name="Path 118" d="M2411.3,1607.631a9.872,9.872,0,0,0-4.178.913.458.458,0,0,0-.3.651,6.209,6.209,0,1,1-12.071.6,5.819,5.819,0,0,1,4.383-4.844,6.082,6.082,0,0,1,6.391,1.8c.214.229.345.089.514.008a11.888,11.888,0,0,1,5.656-1.191,12.373,12.373,0,0,1,4.805,1.145.453.453,0,0,0,.621-.118,6.322,6.322,0,0,1,8.945-.1,5.989,5.989,0,0,1,1.486,6.319,5.893,5.893,0,0,1-4.876,4.21,6.2,6.2,0,0,1-7.251-5.861,6.015,6.015,0,0,1,.3-2.131c.1-.3,0-.4-.252-.513a10.314,10.314,0,0,0-4.168-.889m-10.417-.888a4.094,4.094,0,0,0-4.152,4.044,4.127,4.127,0,1,0,8.252.091,4.072,4.072,0,0,0-4.1-4.135m20.762,0a4.074,4.074,0,0,0-4.125,4.109,4.127,4.127,0,1,0,8.253-.039,4.1,4.1,0,0,0-4.128-4.069" transform="translate(-2386.314 -1584.914)" fill="#002f4f"/>
  <path id="Path_119" data-name="Path 119" d="M2524.023,1817.581c-1.322-.495-2.64-1-3.948-1.534-.365-.148-.411-.032-.41.294q.012,3.35,0,6.7a.439.439,0,0,0,.317.485q2.04.777,4.069,1.579c.3.118.378.048.375-.26-.011-1.125,0-2.25,0-3.375,0-1.1-.012-2.192.007-3.288a.535.535,0,0,0-.407-.6" transform="translate(-2500.522 -1777.909)" fill="#008c98"/>
  <path id="Path_120" data-name="Path 120" d="M2543.658,1777.6q1.286-.5,2.572-1.006c.382-.15.764-.3,1.27-.5l-3.986-1.893a.585.585,0,0,0-.534.061c-1.013.482-2.029.958-3.043,1.438-.239.113-.473.236-.732.365.074.069.1.109.135.123,1.246.485,2.5.964,3.739,1.455a.742.742,0,0,0,.58-.041" transform="translate(-2518.368 -1739.7)" fill="#008c98"/>
  <path id="Path_121" data-name="Path 121" d="M2598.866,1825.138q1.987-.8,3.992-1.546a.5.5,0,0,0,.378-.576c-.031-.82-.058-1.646-.036-2.462.037-1.37,0-2.739.028-4.109.008-.467-.032-.49-.457-.326-1.317.51-2.63,1.03-3.952,1.528a.458.458,0,0,0-.348.507c.012,1.111.005,2.222.005,3.333s.008,2.251,0,3.376c0,.325.068.4.394.273" transform="translate(-2572.503 -1777.949)" fill="#00a1af"/>
</svg>
