<svg id="Group_19" data-name="Group 19" xmlns="http://www.w3.org/2000/svg" width="49.873" height="49.845" viewBox="0 0 49.873 49.845">
  <path id="Path_83" data-name="Path 83" d="M859.327,855.553q5.043,0,10.087,0a3.136,3.136,0,0,1,3.4,3.389c0,.563,0,1.126,0,1.688a3.135,3.135,0,0,1-.61,1.945c-.115.153-.175.268-.033.45a3.289,3.289,0,0,1,.645,2.194c-.013.534-.006,1.068,0,1.6a3.149,3.149,0,0,1-.611,1.988.338.338,0,0,0-.007.488,3.124,3.124,0,0,1,.618,1.985c0,.606,0,1.212,0,1.818a3.115,3.115,0,0,1-3.223,3.224q-4.351.019-8.7-.006c-.428,0-.564.09-.559.544.024,2.583.017,5.166,0,7.749a.546.546,0,0,0,.374.585c2.369,1.09,4.727,2.206,7.1,3.29a1.3,1.3,0,0,1,.853,1.348c-.025,1.587,0,3.175-.014,4.762,0,.329.071.455.43.45,1.457-.02,2.915-.017,4.372,0,.324,0,.425-.1.417-.419-.019-.851-.012-1.7,0-2.554a1.063,1.063,0,0,1,1.21-1.19q3.983,0,7.966,0a1.057,1.057,0,0,1,1.2,1.2q.008,4,0,8.009a1.046,1.046,0,0,1-1.172,1.18q-4,.006-8.009,0a1.061,1.061,0,0,1-1.2-1.2c-.007-.851-.012-1.7,0-2.554.005-.294-.076-.405-.388-.4q-2.229.021-4.459,0c-.284,0-.374.091-.371.373.013,1.125.006,2.251.005,3.376,0,.894-.138,1.115-.956,1.428-2.622,1.006-5.249,2-7.871,3.008a1.374,1.374,0,0,1-1.047,0q-3.971-1.531-7.949-3.045a1.1,1.1,0,0,1-.87-1.266c0-1.154-.012-2.309.006-3.463.005-.33-.105-.415-.422-.412-1.457.015-2.915.018-4.372,0-.363-.005-.434.129-.426.454.019.822.01,1.645,0,2.467-.006.858-.39,1.239-1.246,1.24q-3.94,0-7.879,0c-.866,0-1.252-.376-1.253-1.23q-.006-3.961,0-7.922c0-.859.385-1.234,1.248-1.234q3.94,0,7.879,0c.862,0,1.246.378,1.252,1.234s.01,1.7,0,2.554c0,.282.089.376.373.374,1.486-.011,2.973-.013,4.459,0,.316,0,.387-.114.385-.4-.011-1.616.008-3.232-.011-4.848a1.248,1.248,0,0,1,.812-1.283c2.358-1.078,4.7-2.186,7.061-3.265a.664.664,0,0,0,.452-.714q-.026-3.874,0-7.749c0-.363-.107-.461-.464-.46q-4.351.019-8.7,0a3.132,3.132,0,0,1-3.155-2.159,2.817,2.817,0,0,1-.153-.848c-.009-.765-.019-1.53,0-2.294a2.869,2.869,0,0,1,.607-1.726.335.335,0,0,0,0-.487,3.146,3.146,0,0,1-.614-1.987q.008-.887,0-1.775a3.186,3.186,0,0,1,.612-1.988c.112-.151.176-.262.03-.449a3.175,3.175,0,0,1-.641-2.15,16.819,16.819,0,0,1,.069-2.375,3.072,3.072,0,0,1,2.723-2.512c.229-.022.461-.022.692-.022q5.022,0,10.044,0m-.04,12.47q5.084,0,10.169,0c.9,0,1.284-.387,1.288-1.3,0-.548,0-1.1,0-1.644a1.079,1.079,0,0,0-1.225-1.223c-1.125,0-2.25,0-3.375,0q-8.5,0-17.006,0c-.88,0-1.26.385-1.264,1.27,0,.519,0,1.039,0,1.558,0,.974.362,1.336,1.331,1.336h10.082m.065,2.074q-5.13,0-10.26,0a1.09,1.09,0,0,0-1.213,1.2q-.013.887,0,1.775a1.083,1.083,0,0,0,1.191,1.183q10.238.007,20.476,0a1.084,1.084,0,0,0,1.192-1.182c.01-.563,0-1.125,0-1.688-.005-.886-.408-1.283-1.3-1.284H859.352m-.043-8.314q5.108,0,10.216,0a1.094,1.094,0,0,0,1.214-1.2c.009-.591.01-1.183,0-1.775a1.086,1.086,0,0,0-1.193-1.178q-10.237,0-20.475,0a1.085,1.085,0,0,0-1.192,1.178c-.01.563,0,1.125,0,1.688,0,.887.408,1.286,1.3,1.286h10.129m-7.274,34.009c0,1.4.02,2.8-.012,4.2a.629.629,0,0,0,.5.709q2.693,1,5.368,2.045c.341.133.387.019.386-.287q-.01-4.325,0-8.651a.434.434,0,0,0-.313-.486q-2.769-1.043-5.529-2.112c-.346-.134-.409-.032-.406.3.015,1.427.006,2.855.006,4.282m8.311,2.318c0,1.441.007,2.883-.005,4.324,0,.332.052.441.411.3q2.715-1.062,5.446-2.082a.5.5,0,0,0,.393-.558q-.019-4.281,0-8.561c0-.437-.145-.429-.472-.3-1.8.7-3.6,1.391-5.406,2.065a.508.508,0,0,0-.373.577c.012,1.412.005,2.825.005,4.237m-20.758-5.158c-.922,0-1.845.008-2.767-.005-.272,0-.381.066-.379.36q.017,2.767,0,5.534c0,.292.1.363.376.362q2.745-.015,5.491,0c.27,0,.383-.062.382-.358q-.017-2.767,0-5.534c0-.291-.1-.367-.378-.363-.908.014-1.816.005-2.724.005m42.583,3.165c0-.908-.011-1.816.006-2.724.006-.321-.058-.454-.423-.45-1.8.02-3.6.016-5.4,0-.314,0-.426.075-.423.408.015,1.816.012,3.632,0,5.448,0,.287.063.406.381.4q2.745-.021,5.491,0c.323,0,.38-.125.375-.407-.014-.893-.005-1.787-.005-2.68m-28.426-6.7c.1.088.129.127.166.141,1.734.665,3.47,1.324,5.2,2a.625.625,0,0,0,.493-.042c1.036-.394,2.072-.785,3.107-1.182.707-.271,1.411-.549,2.166-.843a1.578,1.578,0,0,0-.222-.174c-1.709-.8-3.42-1.59-5.127-2.392a.571.571,0,0,0-.531.051q-1.644.766-3.291,1.527c-.636.3-1.271.594-1.963.918" transform="translate(-834.372 -855.552)" fill="#002f4f"/>
  <path id="Path_84" data-name="Path 84" d="M1001.729,965.641a1.053,1.053,0,0,1-1.042-1.049,1.037,1.037,0,0,1,1.079-1.008,1.029,1.029,0,0,1-.037,2.057" transform="translate(-986.283 -954.227)" fill="#002f4f"/>
  <path id="Path_85" data-name="Path 85" d="M1001.166,1036.562a.975.975,0,0,1,1-1.013,1,1,0,0,1,1.014,1.057,1.019,1.019,0,0,1-1.062,1.014.98.98,0,0,1-.952-1.057" transform="translate(-986.721 -1019.96)" fill="#002f4f"/>
  <path id="Path_86" data-name="Path 86" d="M1001.606,891.558a1.034,1.034,0,0,1,.006,2.066,1.034,1.034,0,1,1-.006-2.066" transform="translate(-986.147 -888.44)" fill="#002f4f"/>
  <path id="Path_87" data-name="Path 87" d="M1134.627,1278.23q2.715-1.063,5.446-2.082a.5.5,0,0,0,.392-.558q-.019-4.281,0-8.562c0-.437-.145-.428-.472-.3-1.8.7-3.6,1.391-5.406,2.065a.507.507,0,0,0-.373.577c.012,1.412.005,2.825.005,4.238,0,1.441.007,2.883-.005,4.324,0,.332.052.441.411.3" transform="translate(-1108.249 -1231.048)" fill="#00a1af"/>
  <path id="Path_88" data-name="Path 88" d="M1044.111,1268.734q-2.769-1.043-5.529-2.112c-.346-.135-.409-.032-.406.3.015,1.427.006,2.855.006,4.282,0,1.4.02,2.8-.012,4.2a.629.629,0,0,0,.5.71q2.693,1,5.368,2.045c.341.133.387.02.386-.287q-.01-4.325,0-8.651a.435.435,0,0,0-.313-.486" transform="translate(-1020.52 -1230.969)" fill="#008c98"/>
  <path id="Path_89" data-name="Path 89" d="M1063.914,1221.872c1.035-.395,2.072-.786,3.107-1.182.707-.271,1.411-.549,2.167-.843a1.571,1.571,0,0,0-.222-.174c-1.709-.8-3.42-1.59-5.127-2.392a.571.571,0,0,0-.531.051q-1.644.766-3.291,1.527c-.636.3-1.271.594-1.963.918.1.088.129.126.166.141,1.734.665,3.47,1.324,5.2,2a.626.626,0,0,0,.493-.042" transform="translate(-1038.682 -1185.912)" fill="#008c98"/>
</svg>
