<svg xmlns="http://www.w3.org/2000/svg" width="24.345" height="19.719" viewBox="0 0 24.345 19.719">
  <g id="Group_1167" data-name="Group 1167" transform="translate(-728.62 -10326.564)">
    <path id="Path_421" data-name="Path 421" d="M9.75,55.087c-.116-.007-.231-.013-.347-.022-.347-.028-.7-.048-1.04-.09q-.591-.073-1.178-.181a13.363,13.363,0,0,1-1.756-.455,11.147,11.147,0,0,1-2.714-1.29A6.887,6.887,0,0,1,.9,51.347,4.592,4.592,0,0,1,.02,48.172a7.308,7.308,0,0,1,.774-2.591,12.6,12.6,0,0,1,1.495-2.31,18.056,18.056,0,0,1,1.926-2.05A15.177,15.177,0,0,1,6.988,39.18a8.986,8.986,0,0,1,1.915-.83,4.51,4.51,0,0,1,1.311-.2,2.209,2.209,0,0,1,.994.219,1.6,1.6,0,0,1,.841,1.081,2.85,2.85,0,0,1,.06.993,5.628,5.628,0,0,1-.226,1.078.959.959,0,0,0-.027.118.185.185,0,0,0,.2.236,1,1,0,0,0,.406-.092,12.77,12.77,0,0,1,1.314-.468,8.8,8.8,0,0,1,1.3-.279,5.415,5.415,0,0,1,1-.045,2.729,2.729,0,0,1,1.332.367,1.6,1.6,0,0,1,.772,1.233,3.076,3.076,0,0,1-.172,1.315c-.043.133-.1.263-.141.395a.871.871,0,0,0-.039.166.267.267,0,0,0,.186.294c.117.049.239.085.359.125a5.2,5.2,0,0,1,1.616.846,3.214,3.214,0,0,1,1.093,1.489,3,3,0,0,1,.145,1.215,4.313,4.313,0,0,1-.61,1.839,7.248,7.248,0,0,1-1.494,1.787,11.08,11.08,0,0,1-3.115,1.917,13.822,13.822,0,0,1-2.515.776q-.681.143-1.373.223c-.46.053-.921.089-1.383.1a.519.519,0,0,0-.06.009ZM9.179,53.7a11.242,11.242,0,0,0,2.587-.314,9.323,9.323,0,0,0,2.827-1.18,6.182,6.182,0,0,0,1.691-1.539,3.822,3.822,0,0,0,.763-1.867,3.185,3.185,0,0,0-.054-1.027,3.605,3.605,0,0,0-.967-1.75,5.793,5.793,0,0,0-1.893-1.277,8.965,8.965,0,0,0-2.859-.7,10.657,10.657,0,0,0-1.343-.027,11.366,11.366,0,0,0-1.558.172,10.363,10.363,0,0,0-1.493.385,8.728,8.728,0,0,0-2.289,1.15,5.769,5.769,0,0,0-1.533,1.56,3.618,3.618,0,0,0-.616,1.891,3.239,3.239,0,0,0,.439,1.716,4.37,4.37,0,0,0,1.2,1.323,6.678,6.678,0,0,0,1.768.937,9.121,9.121,0,0,0,2.081.478,10.762,10.762,0,0,0,1.253.067" transform="translate(728.62 10291.196)" fill="#1a1818"/>
    <path id="Path_422" data-name="Path 422" d="M225.429,6.751q-.016.167-.032.334a6.484,6.484,0,0,1-.275,1.326.933.933,0,0,1-1.819-.17,1,1,0,0,1,.048-.419,4.577,4.577,0,0,0-.816-4.272,4.57,4.57,0,0,0-3.988-1.666c-.194.019-.386.057-.578.088a.932.932,0,0,1-.293-1.84A6.6,6.6,0,0,1,219.13,0a6.258,6.258,0,0,1,3.1.877,6.378,6.378,0,0,1,3,3.984,5.859,5.859,0,0,1,.184,1.193.59.59,0,0,0,.01.065Z" transform="translate(527.537 10326.564)" fill="#1a1818"/>
    <path id="Path_423" data-name="Path 423" d="M232.2,48.574a3.457,3.457,0,0,1-.153.947.8.8,0,0,1-1.568-.111.864.864,0,0,1,.035-.376,1.53,1.53,0,0,0-1.332-1.98,2.112,2.112,0,0,0-.527.039.8.8,0,0,1-.88-.641.812.812,0,0,1,.682-.953,3.088,3.088,0,0,1,3.057,1.134,2.922,2.922,0,0,1,.643,1.486c.021.151.029.3.044.456" transform="translate(517.463 10284.434)" fill="#1a1818"/>
    <path id="Path_424" data-name="Path 424" d="M77.251,152.084a3.957,3.957,0,0,1-2.011-.524,2.929,2.929,0,0,1-1.266-3.752,3.845,3.845,0,0,1,1.519-1.75,4.45,4.45,0,0,1,1.768-.663,4.046,4.046,0,0,1,2.506.385,3.023,3.023,0,0,1,1.476,1.586,2.737,2.737,0,0,1,.183,1.326,3.376,3.376,0,0,1-.834,1.882,4.319,4.319,0,0,1-2.433,1.412,4.605,4.605,0,0,1-.91.1M76.165,150.6a1.546,1.546,0,0,0,.81-.213A1.347,1.347,0,0,0,77.7,149.3a.973.973,0,0,0-.5-.961,1.281,1.281,0,0,0-1.118-.1,1.416,1.416,0,0,0-1.033,1.171.959.959,0,0,0,.263.829,1.158,1.158,0,0,0,.853.36m2.16-2.075a.577.577,0,0,0,.467-.285.405.405,0,0,0-.295-.637.554.554,0,0,0-.53.219.443.443,0,0,0-.111.337.418.418,0,0,0,.468.366" transform="translate(660.274 10191.819)" fill="#1a1818"/>
  </g>
</svg>
