<svg xmlns="http://www.w3.org/2000/svg" width="20" height="16.941" viewBox="0 0 20 16.941">
  <path id="medium-vector-logo" d="M224.98,279.3H225v-.2h-5.084l-4.707,11.1-4.727-11.082H205v.2h.02c.933.218,1.39.516,1.39,1.648v13.188c0,1.132-.477,1.43-1.39,1.648H205v.2h3.714v-.2h-.02c-.933-.218-1.39-.516-1.39-1.648V281.742L213.361,296h.338l6.236-14.657v13.148c-.079.894-.536,1.172-1.39,1.351h-.02v.2H225v-.2h-.02c-.834-.2-1.311-.457-1.39-1.351V280.987h0c0-1.152.477-1.47,1.39-1.688" transform="translate(-205 -279.1)"/>
</svg>
