<svg id="Group_1129" data-name="Group 1129" xmlns="http://www.w3.org/2000/svg" xmlns:xlink="http://www.w3.org/1999/xlink" width="20.448" height="16.869" viewBox="0 0 20.448 16.869">
  <defs>
    <clipPath id="clip-path">
      <rect id="Rectangle_254" data-name="Rectangle 254" width="20.448" height="16.869" transform="translate(0 0)"/>
    </clipPath>
  </defs>
  <g id="Group_1128" data-name="Group 1128" clip-path="url(#clip-path)">
    <path id="Path_343" data-name="Path 343" d="M16.106,16.869a1.272,1.272,0,0,1-.892-.362c-.621-.533-1.977-1.523-4.033-2.942-.381.32-1.383,1.177-2.427,2.22-.414.414-.73.624-.941.624a.226.226,0,0,1-.182-.08.831.831,0,0,1-.1-.541l.431-4.582h.009a.327.327,0,0,1,.053-.085c.216-.193,2.172-1.934,4.156-3.766C13.4,6.226,14.38,5.3,15.086,4.6A8.153,8.153,0,0,0,16.5,3.007.05.05,0,0,0,16.5,2.96a.08.08,0,0,0-.067-.025.208.208,0,0,0-.06.009c-.46.169-7.143,4.368-11.085,6.856l-.03.019a.49.49,0,0,1-.147.022.512.512,0,0,1-.087-.008L.41,8.329a.886.886,0,0,1-.254-.175A.515.515,0,0,1,.035,7.6c.034-.1.1-.187.331-.347C1.3,6.6,16.26,1.194,19.249.118L19.3.1a2.026,2.026,0,0,1,.556-.1.716.716,0,0,1,.251.039.438.438,0,0,1,.3.324,1.473,1.473,0,0,1,.04.408c0,.075-.007.152-.014.225v.046c0,.04-.006.083-.009.131-.107,1.717-3.342,14.768-3.374,14.9a1.327,1.327,0,0,1-.185.387.893.893,0,0,1-.71.408Z"/>
  </g>
</svg>
