<svg xmlns="http://www.w3.org/2000/svg" xmlns:xlink="http://www.w3.org/1999/xlink" width="20.022" height="16.404" viewBox="0 0 20.022 16.404">
  <defs>
    <clipPath id="clip-path">
      <rect id="Rectangle_255" data-name="Rectangle 255" width="20.022" height="16.404" transform="translate(0 0)"/>
    </clipPath>
  </defs>
  <g id="Group_1131" data-name="Group 1131" transform="translate(0 0.001)">
    <g id="Group_1130" data-name="Group 1130" clip-path="url(#clip-path)">
      <path id="Path_344" data-name="Path 344" d="M6.307,16.4A10.629,10.629,0,0,1,0,14.508a7.89,7.89,0,0,0,6.149-1.734A4.264,4.264,0,0,1,2.207,9.936a3.831,3.831,0,0,0,1.891,0,3.875,3.875,0,0,1-2.365-1.4,4.3,4.3,0,0,1-.946-2.7,4.225,4.225,0,0,0,1.892.473A4.334,4.334,0,0,1,.787,2.84,3.163,3.163,0,0,1,1.418.791,12.255,12.255,0,0,0,9.933,5.2a3.089,3.089,0,0,1-.158-1.1,4.125,4.125,0,0,1,7.094-2.838c.919-.153,3.062-.46,3.153-.473a9.927,9.927,0,0,0-.688,1.342,5.66,5.66,0,0,1-1.2,1.969v.473a12.262,12.262,0,0,1-3.015,7.981A11.323,11.323,0,0,1,6.307,16.4"/>
    </g>
  </g>
</svg>
