<svg xmlns="http://www.w3.org/2000/svg" xmlns:xlink="http://www.w3.org/1999/xlink" width="267.279" height="89.82" viewBox="0 0 267.279 89.82">
  <defs>
    <radialGradient id="radial-gradient" cx="0.415" cy="0.332" r="0.399" gradientTransform="matrix(0.977, 0, 0, -1, 0.167, 1.953)" gradientUnits="objectBoundingBox">
      <stop offset="0" stop-color="#fdec14"/>
      <stop offset="0.26" stop-color="#fde614"/>
      <stop offset="0.6" stop-color="#fbd515"/>
      <stop offset="0.99" stop-color="#f9ba16"/>
    </radialGradient>
    <radialGradient id="radial-gradient-2" cx="-119.867" cy="-2873.37" r="1850.269" gradientTransform="matrix(0.75, 0, 0, -1, 4005.172, 1995.415)" gradientUnits="objectBoundingBox">
      <stop offset="0" stop-color="#fdec14"/>
      <stop offset="0.99" stop-color="#f9ba16"/>
    </radialGradient>
  </defs>
  <g id="Group_16062" data-name="Group 16062" transform="translate(-19001 15717)">
    <path id="Path_30106" data-name="Path 30106" d="M90.23,30.97l-.37.05v-.09l.38.04a7.662,7.662,0,0,0-1.17-.86,11.18,11.18,0,0,0-6.24-.99,12.929,12.929,0,0,0-5.57,2.12,3.235,3.235,0,0,1-3.42.3c-1.4-.74-2.78-1.5-4.19-2.21a11.786,11.786,0,0,0-1.54-.56,11.227,11.227,0,0,0-2.59-.06q-.36-.51-.75-.99c1.17-3.19,3.36-5.26,7.3-5.29a8.139,8.139,0,0,0-3.3-1.6,19.635,19.635,0,0,0-2.42-.24,8.078,8.078,0,0,0-3.37.92,9.8,9.8,0,0,0-2.77,1.87c-.2-.14-.4-.27-.6-.42a10.74,10.74,0,0,1,1.09-.78,10.8,10.8,0,0,0,3.51-3.51,7.208,7.208,0,0,0,.87-5.76,20.045,20.045,0,0,0-1.04-2.9,7.648,7.648,0,0,1,1.02-8.1c.45-.59.92-1.15,1.38-1.73L66.35,0c-1.39.58-2.8,1.09-4.15,1.75a9.931,9.931,0,0,0-3.93,3.94,12.531,12.531,0,0,0-1.7,5.74,3.479,3.479,0,0,1-2.23,2.94c-1,.45-2.04.81-3.08,1.18a7.115,7.115,0,0,0-3.98,3.29c-.41-.02-.81-.03-1.24-.03-.39-.86-.75-1.66-1.09-2.47a3.465,3.465,0,0,1-.15-.91c-.06-.79-.14-1.58-.15-2.36a2.961,2.961,0,0,1,1.06-2.44c.22-.19.43-.39.65-.58l-.1-.21a6.515,6.515,0,0,1-.78.27,4.239,4.239,0,0,0-1.88,1,17.291,17.291,0,0,0-1.73,1.43,7.51,7.51,0,0,0-1.58,3.15,13.617,13.617,0,0,0-.4,3.92c-.27.07-.54.15-.81.23a6.369,6.369,0,0,1,.08-1.57,10.833,10.833,0,0,0-.11-2.91,7.021,7.021,0,0,0-.95-2.95,7.906,7.906,0,0,0-4.34-3.45,18.415,18.415,0,0,1-4.41-1.74,7.156,7.156,0,0,1-3.11-4.21c-.2-.76-.36-1.53-.54-2.29-.05-.14-.11-.28-.17-.41a14.953,14.953,0,0,0-.67,1.4,12.256,12.256,0,0,0-.89,3.94,13.089,13.089,0,0,0,.65,3.92,11.314,11.314,0,0,0,2.21,4.02,15.782,15.782,0,0,0,1.36,1.47,3.538,3.538,0,0,1,.92,3.53c-.23,1.12-.79,2.17-1.06,3.29a9.042,9.042,0,0,0-.3,2.84,8.934,8.934,0,0,0,.45,2.16c-.27.31-.54.62-.8.94a8.71,8.71,0,0,1-4.23-1.66,6.564,6.564,0,0,1-2.5-4.23,11.872,11.872,0,0,0-.54,1.14,16.984,16.984,0,0,0-.51,1.72,2.105,2.105,0,0,0-.03.75,9.74,9.74,0,0,0,1.16,3.91,12,12,0,0,0,3.42,3.75c-.1.23-.19.45-.27.68-.47-.35-.91-.74-1.36-1.13a10.594,10.594,0,0,0-4.82-2.61c-2.42-.54-4.36.34-6.29,1.56-1.08.7-2.19,1.34-3.33,1.93a6.4,6.4,0,0,1-2.89.4,9.379,9.379,0,0,1-4.5-1.47l-.66-.34A13.906,13.906,0,0,0,3.4,36.9a12.791,12.791,0,0,0,4.24,2.27,14.046,14.046,0,0,0,5.91.3,2.969,2.969,0,0,1,2.37.87c1.34,1.17,2,2.82,3.13,4.11a8.028,8.028,0,0,0,3.55,2.44c.07.39.14.79.23,1.18-2.53,2.32-5.34,3.37-8.84,1.71a15.014,15.014,0,0,0,.95,1.53,7.674,7.674,0,0,0,4.05,2.79,10.162,10.162,0,0,0,4.25.19,11.885,11.885,0,0,0,1.75-.38c.12.23.24.45.37.68-.64.14-1.29.23-1.92.37a14.84,14.84,0,0,0-1.98.54c-2.54.97-4.52,2.5-5.16,5.32a16.426,16.426,0,0,0-.46,2.96c-.14,3.46-1.53,6.09-4.74,7.6l-1.7.81.02.13c.63.07,1.26.14,1.9.23.32.05.64.19.96.21a11.261,11.261,0,0,0,6.12-1.54,11.7,11.7,0,0,0,4.41-4.34c1.27-2.13,2.8-2.47,5.26-2.08a9.352,9.352,0,0,0,6.65-1.05c.36.19.72.37,1.09.54a4.448,4.448,0,0,0,0,.73,8.223,8.223,0,0,1-1.03,4.47,5.742,5.742,0,0,1-2.58,2.38q-.27.15-.54.27l.02.16a19.243,19.243,0,0,0,2.28.13,7.459,7.459,0,0,0,3.64-1.11,9.792,9.792,0,0,0,3.16-3.21,11.332,11.332,0,0,0,.97-1.9c.25.05.49.08.74.12a12.162,12.162,0,0,1-.77,1.53,9.528,9.528,0,0,0-1.42,6.2,7.646,7.646,0,0,0,2.24,4.3c.81.86,1.75,1.64,2.54,2.54a6.987,6.987,0,0,1,1.77,5.97c-.16.98-.39,1.95-.59,2.93h-.01v.02a11.528,11.528,0,0,0,3.88-4.38,11.9,11.9,0,0,0,1.16-6.32,9.837,9.837,0,0,0-.66-2.72c-.98-2.38-.27-4.2,1.55-5.85a14.745,14.745,0,0,0,2.42-2.92,6.182,6.182,0,0,0,.85-2.87c.37-.15.74-.32,1.11-.49a7.356,7.356,0,0,1,3.7,8.11A10.058,10.058,0,0,0,62.82,69a7,7,0,0,0,.44-3.73,12.106,12.106,0,0,0-1.43-4.45c.19-.16.37-.32.54-.49a12.683,12.683,0,0,1,.59,1.36,9.669,9.669,0,0,0,4.75,5.57,8.378,8.378,0,0,0,4.98.44,15.36,15.36,0,0,1,3.74-.33,7.672,7.672,0,0,1,5.2,2.83c.44.54.86,1.11,1.33,1.71a17.962,17.962,0,0,0-.02-2.75,11.23,11.23,0,0,0-3.63-6.54,11.705,11.705,0,0,0-4.7-2.63,4.041,4.041,0,0,1-2.86-3.45c-.23-1.09-.23-2.23-.39-3.34a5.932,5.932,0,0,0-1.22-2.96,10.782,10.782,0,0,0-.98-1.05c.11-.39.2-.78.29-1.17a8.4,8.4,0,0,1,3.8-.52,5.269,5.269,0,0,1,3.39,1.38c.49.45.97.91,1.47,1.37a7.563,7.563,0,0,0-3.62-6.79,12.491,12.491,0,0,0-4.5-1.75c0-.24-.02-.49-.04-.73a13.355,13.355,0,0,1,1.76.45,9.82,9.82,0,0,0,4.81.4c2.84-.48,4.56-2.23,5.86-4.62a9.54,9.54,0,0,1,3.68-4.15,9.834,9.834,0,0,1,5.88-.93,2.793,2.793,0,0,0-1.63-1.14ZM68.42,21.32l.16.05-.02.08-.16-.04.02-.08ZM1.6,34.27v-.03h.12v.04H1.6Z" transform="translate(19000.949 -15717)" fill="url(#radial-gradient)"/>
    <path id="Path_30107" data-name="Path 30107" d="M46.14,89.75l.04.03v-.02h-.04Z" transform="translate(19000.949 -15717)" fill="url(#radial-gradient-2)"/>
    <path id="Path_30108" data-name="Path 30108" d="M123.9,59.18h-6.48l-2.18-5.88H104.55l-2.33,5.88h-6.4l10.62-25.87h6.33l11.14,25.87Zm-10.66-10.4-3.52-9.1-3.4,9.1Z" transform="translate(19000.949 -15717)" fill="#f9ba16"/>
    <path id="Path_30109" data-name="Path 30109" d="M146.03,59.18h-9.36a19.49,19.49,0,0,1-6.59-.92,7.808,7.808,0,0,1-4.51-4.06,9.009,9.009,0,0,1-.72-2.12,11.771,11.771,0,0,1-.2-2.35V33.32h6.66V49.5a6.6,6.6,0,0,0,.26,1.94,4.8,4.8,0,0,0,.93,1.64,4.256,4.256,0,0,0,2.15,1.55,10.8,10.8,0,0,0,3.11.37h8.29v4.18Z" transform="translate(19000.949 -15717)" fill="#f9ba16"/>
    <path id="Path_30110" data-name="Path 30110" d="M174.41,59.18h-6.48l-2.18-5.88H155.06l-2.33,5.88h-6.4l10.62-25.87h6.33l11.14,25.87Zm-10.66-10.4-3.52-9.1-3.4,9.1Z" transform="translate(19000.949 -15717)" fill="#f9ba16"/>
    <path id="Path_30111" data-name="Path 30111" d="M192.95,34.16A9.228,9.228,0,0,1,197.87,39a16.923,16.923,0,0,1,1.67,7.61,16.194,16.194,0,0,1-1.85,7.91,7.978,7.978,0,0,1-5.51,4.4,16.828,16.828,0,0,1-3.07.26H175.16V33.31h13.17a13.194,13.194,0,0,1,4.63.85Zm.67,12.55a14.015,14.015,0,0,0-1.07-5.88,4.411,4.411,0,0,0-4.14-2.89h-7.22V54.7l7.7.04a3.971,3.971,0,0,0,3.74-2.63,12.733,12.733,0,0,0,1-5.4Z" transform="translate(19000.949 -15717)" fill="#f9ba16"/>
    <path id="Path_30112" data-name="Path 30112" d="M220.26,34.16A9.228,9.228,0,0,1,225.18,39a16.923,16.923,0,0,1,1.67,7.61A16.194,16.194,0,0,1,225,54.52a7.978,7.978,0,0,1-5.51,4.4,16.828,16.828,0,0,1-3.07.26H202.47V33.31h13.17a13.194,13.194,0,0,1,4.63.85Zm.67,12.55a14.015,14.015,0,0,0-1.07-5.88,4.411,4.411,0,0,0-4.14-2.89H208.5V54.7l7.7.04a3.971,3.971,0,0,0,3.74-2.63,12.733,12.733,0,0,0,1-5.4Z" transform="translate(19000.949 -15717)" fill="#f9ba16"/>
    <path id="Path_30113" data-name="Path 30113" d="M236.69,59.18h-6.92V33.31h6.92Z" transform="translate(19000.949 -15717)" fill="#f9ba16"/>
    <path id="Path_30114" data-name="Path 30114" d="M267.33,59.18h-8.22L246.6,40.05V59.18h-6.18V33.31h8.33L261.04,52.7V33.31h6.29V59.18Z" transform="translate(19000.949 -15717)" fill="#f9ba16"/>
  </g>
</svg>
