<svg xmlns="http://www.w3.org/2000/svg" xmlns:xlink="http://www.w3.org/1999/xlink" width="200.665" height="44.428" viewBox="0 0 200.665 44.428">
  <defs>
    <clipPath id="clip-path">
      <rect id="Rectangle_905" data-name="Rectangle 905" width="22.841" height="44.27" fill="none"/>
    </clipPath>
  </defs>
  <g id="Group_1201" data-name="Group 1201" transform="translate(918.077 -399.466)">
    <path id="Path_463" data-name="Path 463" d="M-909.928,438.262a15.68,15.68,0,0,0-.557,4.08v.286a20.97,20.97,0,0,1-.557,4.95,5.218,5.218,0,0,1-2.313-1.782c-1.987-2.517-1.326-6.552,1.123-7.5a3.1,3.1,0,0,1,2.307-.048.07.07,0,0,0,0,.016" transform="translate(-2.087 -22.656)" fill="#a16552"/>
    <path id="Path_464" data-name="Path 464" d="M-909.928,438.262a15.68,15.68,0,0,0-.557,4.08v.286a20.97,20.97,0,0,1-.557,4.95,5.218,5.218,0,0,1-2.313-1.782c-1.987-2.517-1.326-6.552,1.123-7.5a3.1,3.1,0,0,1,2.307-.048.07.07,0,0,0,0,.016" transform="translate(-2.087 -22.656)" fill="#f5dcb4"/>
    <path id="Path_465" data-name="Path 465" d="M-819.6,445.8a5.243,5.243,0,0,1-2.314,1.781,21.041,21.041,0,0,1-.557-4.948v-.286a15.6,15.6,0,0,0-.562-4.1,3.1,3.1,0,0,1,2.307.048c2.45.948,3.111,4.983,1.126,7.5" transform="translate(-55.815 -22.659)" fill="#a16552"/>
    <path id="Path_466" data-name="Path 466" d="M-819.6,445.8a5.243,5.243,0,0,1-2.314,1.781,21.041,21.041,0,0,1-.557-4.948v-.286a15.6,15.6,0,0,0-.562-4.1,3.1,3.1,0,0,1,2.307.048c2.45.948,3.111,4.983,1.126,7.5" transform="translate(-55.815 -22.659)" fill="#f5dcb4"/>
    <path id="Path_467" data-name="Path 467" d="M-869.979,445.9a4.438,4.438,0,0,0-.488,3.806,9.929,9.929,0,0,1,.618,2.855c0,5.915-5.6,10.7-12.512,10.7s-12.513-4.788-12.513-10.7a9.957,9.957,0,0,1,.618-2.855,4.435,4.435,0,0,0-.487-3.805,6.881,6.881,0,0,1-1.082-3.69,7.293,7.293,0,0,1,7.466-7.109,7.725,7.725,0,0,1,3.8.991,4.44,4.44,0,0,0,4.392,0,7.711,7.711,0,0,1,3.8-.99,7.3,7.3,0,0,1,7.467,7.109,6.78,6.78,0,0,1-.62,2.84,6.887,6.887,0,0,1-.462.848" transform="translate(-13.067 -20.926)" fill="#a16552"/>
    <path id="Path_468" data-name="Path 468" d="M-869.979,445.9a4.438,4.438,0,0,0-.488,3.806,9.929,9.929,0,0,1,.618,2.855c0,5.915-5.6,10.7-12.512,10.7s-12.513-4.788-12.513-10.7a9.957,9.957,0,0,1,.618-2.855,4.435,4.435,0,0,0-.487-3.805,6.881,6.881,0,0,1-1.082-3.69,7.293,7.293,0,0,1,7.466-7.109,7.725,7.725,0,0,1,3.8.991,4.44,4.44,0,0,0,4.392,0,7.711,7.711,0,0,1,3.8-.99,7.3,7.3,0,0,1,7.467,7.109,6.78,6.78,0,0,1-.62,2.84,6.887,6.887,0,0,1-.462.848" transform="translate(-13.067 -20.926)" fill="#f5dcb4"/>
    <path id="Path_469" data-name="Path 469" d="M-879.671,480.6a.718.718,0,0,0-.72.717.663.663,0,0,0,.007.1,6.934,6.934,0,0,0,7.087,5.617,6.932,6.932,0,0,0,7.088-5.617.718.718,0,0,0-.618-.806.716.716,0,0,0-.094-.006Z" transform="translate(-22.131 -47.646)" fill="#4e3f3f"/>
    <path id="Path_470" data-name="Path 470" d="M-873.178,491.3a7.775,7.775,0,0,0,8.233,0c-.516-1.788-2.168-1.376-4.12-1.376s-3.6-.412-4.113,1.376" transform="translate(-26.366 -53.099)" fill="#e6646e"/>
    <path id="Path_471" data-name="Path 471" d="M-875.691,414.317a3.882,3.882,0,0,0-3.482.2,18.294,18.294,0,0,0-.7-1.747q-.287-.625-.62-1.235a19.286,19.286,0,0,0-10.445-9.041l-.089-2.354-2.831,1.7-.341-.038c-.21-.019-.416-.033-.628-.042l-.413-1.781-.121-.514a3.7,3.7,0,0,0-.414.015,5.467,5.467,0,0,0-4.149,3.016,19.269,19.269,0,0,0-10.446,9.039q-.334.608-.62,1.235a18.6,18.6,0,0,0-.7,1.747l-.106-.059a3.893,3.893,0,0,0-3.375-.144c-3.112,1.207-3.952,6.335-1.43,9.536a6.513,6.513,0,0,0,3.154,2.33c-.013.058-.027.117-.039.176a12.219,12.219,0,0,0-.282,2.616c0,6.105,4.5,11.357,10.955,13.666a21.324,21.324,0,0,0,4.684,1.1,22.271,22.271,0,0,0,2.5.156h.2c10.125,0,18.332-6.681,18.332-14.921a12.217,12.217,0,0,0-.281-2.618c-.014-.059-.026-.118-.04-.176a6.477,6.477,0,0,0,3.154-2.332c2.523-3.2,1.682-8.327-1.429-9.532m-36.323,1.289a15.662,15.662,0,0,0-.557,4.08v.286a20.986,20.986,0,0,1-.557,4.949,5.223,5.223,0,0,1-2.314-1.781c-1.986-2.517-1.326-6.552,1.124-7.5a3.1,3.1,0,0,1,2.307-.048.063.063,0,0,0,0,.016m29.431,8.519a6.882,6.882,0,0,1-.462.847,4.436,4.436,0,0,0-.488,3.806,9.942,9.942,0,0,1,.618,2.855c0,5.915-5.6,10.7-12.512,10.7s-12.513-4.788-12.513-10.7a9.958,9.958,0,0,1,.618-2.855,4.433,4.433,0,0,0-.487-3.805,6.879,6.879,0,0,1-1.082-3.69,7.293,7.293,0,0,1,7.466-7.109,7.715,7.715,0,0,1,3.8.991,4.442,4.442,0,0,0,4.392,0,7.707,7.707,0,0,1,3.8-.99,7.3,7.3,0,0,1,7.467,7.108,6.774,6.774,0,0,1-.62,2.841m7.171-.984a5.243,5.243,0,0,1-2.314,1.781,21.037,21.037,0,0,1-.557-4.948v-.286a15.6,15.6,0,0,0-.562-4.1,3.1,3.1,0,0,1,2.307.048c2.45.948,3.111,4.983,1.126,7.5" transform="translate(0 0)" fill="#a16552"/>
    <path id="Path_472" data-name="Path 472" d="M-870.846,467.19l.015-.032a.583.583,0,0,1,.773-.289l1.422.65a.583.583,0,0,1,.288.773l-.014.032a.583.583,0,0,1-.773.288l-1.422-.649a.583.583,0,0,1-.288-.773" transform="translate(-27.705 -39.551)" fill="#4e3f3f"/>
    <path id="Path_473" data-name="Path 473" d="M-861.753,468.329l-.015-.032a.584.584,0,0,1,.289-.773l1.422-.649a.583.583,0,0,1,.773.288l.015.032a.584.584,0,0,1-.289.773l-1.422.65a.583.583,0,0,1-.773-.289" transform="translate(-33.036 -39.553)" fill="#4e3f3f"/>
    <path id="Path_474" data-name="Path 474" d="M-881.831,452.459h0a2.089,2.089,0,0,1-2.143-2.031v-.677a2.09,2.09,0,0,1,2.143-2.031,2.089,2.089,0,0,1,2.142,2.031v.677a2.088,2.088,0,0,1-2.142,2.031" transform="translate(-20.027 -28.336)" fill="#4e3f3f"/>
    <path id="Path_475" data-name="Path 475" d="M-878.781,447.72v2.37a1.072,1.072,0,0,0,1.12,1.022,1.072,1.072,0,0,0,1.022-1.022v-.334a2.087,2.087,0,0,0-2.142-2.036" transform="translate(-23.076 -28.336)" fill="#5d5360"/>
    <path id="Path_476" data-name="Path 476" d="M-879.8,449.36a.7.7,0,0,1,.715.677.7.7,0,0,1-.715.677.7.7,0,0,1-.715-.677.7.7,0,0,1,.715-.677" transform="translate(-22.059 -29.3)" fill="#fff"/>
    <path id="Path_477" data-name="Path 477" d="M-850.676,452.459h0a2.088,2.088,0,0,1-2.142-2.031v-.677a2.089,2.089,0,0,1,2.142-2.031,2.09,2.09,0,0,1,2.143,2.031v.677a2.09,2.09,0,0,1-2.143,2.031" transform="translate(-38.322 -28.336)" fill="#4e3f3f"/>
    <path id="Path_478" data-name="Path 478" d="M-847.628,447.72v2.37A1.073,1.073,0,0,0-846.5,451.1a1.074,1.074,0,0,0,1.012-1.012v-.334a2.089,2.089,0,0,0-2.143-2.036" transform="translate(-41.37 -28.336)" fill="#5d5360"/>
    <path id="Path_479" data-name="Path 479" d="M-848.645,449.36a.7.7,0,0,1,.715.677.7.7,0,0,1-.715.677.7.7,0,0,1-.715-.677.7.7,0,0,1,.715-.677" transform="translate(-40.353 -29.3)" fill="#fff"/>
    <g id="Group_1196" data-name="Group 1196" transform="translate(-918.077 399.466)" opacity="0.35" style="mix-blend-mode: normal;isolation: isolate">
      <g id="Group_1195" data-name="Group 1195">
        <g id="Group_1194" data-name="Group 1194" clip-path="url(#clip-path)">
          <path id="Path_480" data-name="Path 480" d="M-895.236,399.986c-.48-.047-1.53.707-2.784,2.016-.313.326-.64.688-.974,1.08a29.384,29.384,0,0,0-6.3,12.122c-1.642,7.85-2.309,16.958.589,22.01a18.921,18.921,0,0,0,6.582,6.524,21.351,21.351,0,0,1-4.683-1.1c-6.448-2.306-10.95-7.56-10.95-13.664a12.276,12.276,0,0,1,.283-2.618q.019-.089.039-.176a6.558,6.558,0,0,1-3.155-2.328c-2.522-3.2-1.682-8.325,1.43-9.531a3.889,3.889,0,0,1,3.375.145l.106.059a18.553,18.553,0,0,1,.7-1.747q.287-.626.62-1.235a19.258,19.258,0,0,1,10.446-9.044,5.465,5.465,0,0,1,4.149-3.016,3.585,3.585,0,0,1,.414-.016Z" transform="translate(918.077 -399.467)" fill="#4e3f3f"/>
        </g>
      </g>
    </g>
    <path id="Path_481" data-name="Path 481" d="M-779.818,452.079a9.374,9.374,0,0,1-2.982.32,13.908,13.908,0,0,1-3.588-.393q-1.439-.392-1.44-1a90.563,90.563,0,0,1,2.589-8.916q2.589-8.217,2.967-9.465.146-.378,2.339-.626a42.176,42.176,0,0,1,4.712-.247q2.517,0,2.784.873,5.5,18.269,5.5,18.559a.793.793,0,0,1-.348.582,5.609,5.609,0,0,1-3.229.64q-5.149,0-5.265-1.225l-.2-1.893h-2.8l-.144,1.629a1.272,1.272,0,0,1-.891,1.164m3.214-8.32-.436-5.233h-.64l-.495,5.233Z" transform="translate(-76.488 -18.958)" fill="#a16552"/>
    <path id="Path_482" data-name="Path 482" d="M-732.649,460.916v-18.5q0-.61,1.629-1.251a9.542,9.542,0,0,1,3.52-.64,3.714,3.714,0,0,1,1.367.2,1.251,1.251,0,0,1,.611.407,10.946,10.946,0,0,1,.437,1.745h.233a2.389,2.389,0,0,1,.523-.814,5.421,5.421,0,0,1,.946-.9,4.718,4.718,0,0,1,1.382-.626,7.259,7.259,0,0,1,2.109-.276,4.511,4.511,0,0,1,2.2.539,4.067,4.067,0,0,1,1.47,1.25,5.765,5.765,0,0,1,.756,1.8,10.3,10.3,0,0,1,.319,1.745q.045.654.045,1.893t-.088,2.444a22.068,22.068,0,0,1-.319,2.459,8.571,8.571,0,0,1-.668,2.153,6.671,6.671,0,0,1-1.105,1.629,5.064,5.064,0,0,1-3.927,1.454,4.536,4.536,0,0,1-1.644-.276,2.8,2.8,0,0,1-1.061-.655,3.062,3.062,0,0,1-.844-1.4l-.029-.291h-.232l.407,2.618v3.287q0,.321-1.67.509a30.359,30.359,0,0,1-3.432.189,10.779,10.779,0,0,1-2.338-.159c-.4-.109-.59-.287-.59-.541m9.4-15.505q-.262-.989-.786-.989a.79.79,0,0,0-.756.583v7.621q0,.758.785.757,1.018,0,1.019-4.509a15.529,15.529,0,0,0-.262-3.462" transform="translate(-108.89 -23.956)" fill="#a16552"/>
    <path id="Path_483" data-name="Path 483" d="M-677.283,450.818q0,1.893,1.8,1.893a7.486,7.486,0,0,0,2.735-.713q1.688-.713,1.775-.712.551,0,1.454,1.658a6,6,0,0,1,.9,2.443q0,1.135-2.327,1.717a18.764,18.764,0,0,1-4.553.581,16.776,16.776,0,0,1-3.724-.348,9.1,9.1,0,0,1-2.443-.891,7.076,7.076,0,0,1-2.721-2.82,7.5,7.5,0,0,1-.557-1.59,11.942,11.942,0,0,1-.291-2.647q0-5.295,2.764-7.3a8.349,8.349,0,0,1,3.054-1.425,17.124,17.124,0,0,1,3.987-.408q7.358,0,7.359,5.122,0,5.44-8.261,5.441Zm-.058-4.248v1.921a1.693,1.693,0,0,0,1.382-.668,2.52,2.52,0,0,0,.539-1.629q0-1.745-.9-1.746-1.019,0-1.019,2.122" transform="translate(-136.737 -23.952)" fill="#a16552"/>
    <path id="Path_484" data-name="Path 484" d="M-623.453,450.756a7.39,7.39,0,0,1-2.43,1.061,15.772,15.772,0,0,1-4.009.422,25.744,25.744,0,0,1-4.67-.408,12.379,12.379,0,0,1-3.172-.9q-.96-.494-.96-.961a13.25,13.25,0,0,1,.466-3.388q.464-1.76,1.106-1.76.111,0,2.414.786a11.722,11.722,0,0,0,3.462.78,2.988,2.988,0,0,0,1.513-.247.817.817,0,0,0,.349-.712q0-.467-.641-.83a7.413,7.413,0,0,0-1.6-.639,14.31,14.31,0,0,1-2.079-.8A15.717,15.717,0,0,1-635.786,442a4.98,4.98,0,0,1-1.6-1.818,5.539,5.539,0,0,1-.64-2.69q0-6.458,7.709-6.458a29.585,29.585,0,0,1,4.975.363,10.935,10.935,0,0,1,2.952.815q.859.445.859.891a8.666,8.666,0,0,1-.712,3.258q-.713,1.746-1.382,1.745a3.673,3.673,0,0,1-.756-.262,8.343,8.343,0,0,0-3.186-.844,4.213,4.213,0,0,0-1.716.232.757.757,0,0,0-.451.714q0,.48.639.785a8.914,8.914,0,0,0,1.586.556,13.028,13.028,0,0,1,2.065.757,12.55,12.55,0,0,1,2.08,1.193,5.227,5.227,0,0,1,1.6,1.934,6.326,6.326,0,0,1,.641,2.91,5.81,5.81,0,0,1-.9,3.17,5.546,5.546,0,0,1-1.426,1.5" transform="translate(-164.066 -18.537)" fill="#a16552"/>
    <path id="Path_485" data-name="Path 485" d="M-569.657,457.066q-.378.7-3.942.7t-3.709-.7l-.989-5.294h-.407l-.931,5.294q-.087.7-5.091.7a6.7,6.7,0,0,1-1.847-.16,1.023,1.023,0,0,1-.626-.538q-5.409-13.293-5.41-13.992t2.109-1.44a12.2,12.2,0,0,1,4.057-.743q2.5,0,2.59,1.336l.989,7.97h.349l.349-6.428q.029-.726,1.483-1.28a8.238,8.238,0,0,1,2.938-.557,5.282,5.282,0,0,1,2.227.363q.744.363.77.891l.319,7.015h.321l.958-7.482q.087-.7,1.963-1.265a11.643,11.643,0,0,1,3.3-.568,5.078,5.078,0,0,1,2.24.407q1.336.639,1.336,1.513,0,.087-2.633,7.1t-2.718,7.161" transform="translate(-191.127 -24.324)" fill="#a16552"/>
    <path id="Path_486" data-name="Path 486" d="M-517.309,457.658a6.345,6.345,0,0,1-4.161-1.25,4.29,4.29,0,0,1-1.062-1.542,5.837,5.837,0,0,1-.451-2.381,4.312,4.312,0,0,1,.655-2.385,4.8,4.8,0,0,1,1.591-1.576,8.977,8.977,0,0,1,2.181-.9,16.45,16.45,0,0,1,4.16-.495h.961a1.813,1.813,0,0,0-.815-1.687,2.163,2.163,0,0,0-1.062-.2,5.03,5.03,0,0,0-1.716.377,10.951,10.951,0,0,0-1.67.772,2.39,2.39,0,0,1-.9.392q-.524,0-1.425-1.382a4.732,4.732,0,0,1-.9-2.517q0-.378,1.076-.989a12.907,12.907,0,0,1,3.04-1.12,15.219,15.219,0,0,1,3.825-.508,14.852,14.852,0,0,1,3.215.3,9.59,9.59,0,0,1,2.212.743,4.5,4.5,0,0,1,1.454,1.164,8.029,8.029,0,0,1,.9,1.308,4.935,4.935,0,0,1,.445,1.513,14.69,14.69,0,0,1,.2,2.647V456.7q0,.321-1.559.508a25.327,25.327,0,0,1-3.083.189,13.524,13.524,0,0,1-1.979-.087,1,1,0,0,1-.538-.2,1.064,1.064,0,0,1-.146-.407l-.233-1.653h-.233q-.731,2.613-3.985,2.612m3.9-4.829v-3.4a1.447,1.447,0,0,0-1.225.639,2.421,2.421,0,0,0-.466,1.455q0,1.919.873,1.919a.874.874,0,0,0,.6-.189.557.557,0,0,0,.222-.422Z" transform="translate(-232.014 -23.956)" fill="#a16552"/>
    <path id="Path_487" data-name="Path 487" d="M-474.422,460.916v-18.5q0-.61,1.629-1.251a9.548,9.548,0,0,1,3.521-.64,3.719,3.719,0,0,1,1.367.2,1.24,1.24,0,0,1,.61.407,11.052,11.052,0,0,1,.437,1.745h.232a2.455,2.455,0,0,1,.523-.814,5.451,5.451,0,0,1,.946-.9,4.747,4.747,0,0,1,1.382-.626,7.258,7.258,0,0,1,2.109-.276,4.512,4.512,0,0,1,2.2.539,4.058,4.058,0,0,1,1.469,1.25,5.733,5.733,0,0,1,.756,1.8,10.273,10.273,0,0,1,.321,1.745q.043.654.043,1.893t-.087,2.444a22.192,22.192,0,0,1-.32,2.459,8.5,8.5,0,0,1-.668,2.153,6.706,6.706,0,0,1-1.1,1.629,5.063,5.063,0,0,1-3.927,1.454,4.532,4.532,0,0,1-1.644-.276,2.81,2.81,0,0,1-1.062-.655,3.076,3.076,0,0,1-.844-1.4l-.029-.291h-.233l.407,2.618v3.287q0,.321-1.67.509a30.381,30.381,0,0,1-3.433.189,10.778,10.778,0,0,1-2.338-.159c-.4-.109-.589-.287-.589-.541m9.4-15.505q-.262-.989-.78-.989a.8.8,0,0,0-.757.583v7.621q0,.758.786.757,1.016,0,1.017-4.509a15.644,15.644,0,0,0-.267-3.462" transform="translate(-260.531 -23.956)" fill="#a16552"/>
  </g>
</svg>
