<svg xmlns="http://www.w3.org/2000/svg" width="103" height="27" viewBox="0 0 103 27">
  <g id="bitforex-logo-light.b6f10db" transform="translate(0 -5)">
    <path id="Path_30097" data-name="Path 30097" d="M0,18.5a25.372,25.372,0,0,1,.345-6A10.125,10.125,0,0,1,7.5,5.345,25.373,25.373,0,0,1,13.5,5a25.372,25.372,0,0,1,6,.345,10.125,10.125,0,0,1,7.16,7.16,25.372,25.372,0,0,1,.345,6,25.372,25.372,0,0,1-.345,6,10.125,10.125,0,0,1-7.16,7.16,25.372,25.372,0,0,1-6,.345,25.373,25.373,0,0,1-6-.345A10.125,10.125,0,0,1,.345,24.5,25.372,25.372,0,0,1,0,18.5Z" fill="#14c393"/>
    <path id="Path_30098" data-name="Path 30098" d="M16.428,20.86a3.108,3.108,0,0,1-3,3.2,3.108,3.108,0,0,1-3-3.2V17.514h6ZM22.2,12a2.531,2.531,0,0,1-2.451,2.611h-.547V12H16.432v2.611h-6V12H7.657v2.611H7.234A2.538,2.538,0,0,1,4.781,12H2a5.279,5.279,0,0,0,5.269,5.511h.388v3.343A5.976,5.976,0,0,0,13.431,27a5.975,5.975,0,0,0,5.774-6.146V17.511h.581A5.228,5.228,0,0,0,25,12Z" fill="#fff" fill-rule="evenodd"/>
    <path id="Path_30099" data-name="Path 30099" d="M34,24.823V13.408h6.09a3.841,3.841,0,0,1,2.69.815,2.878,2.878,0,0,1,.9,2.269,2.944,2.944,0,0,1-.374,1.542,2.6,2.6,0,0,1-1.009.939,2.643,2.643,0,0,1,1.326.833,2.464,2.464,0,0,1,.5,1.684,3.114,3.114,0,0,1-.99,2.5,4.218,4.218,0,0,1-2.821.833Zm2.522-6.682h3.1a1.869,1.869,0,0,0,1.308-.372,1.456,1.456,0,0,0,.392-1.081,1.456,1.456,0,0,0-.411-1.134,2.177,2.177,0,0,0-1.476-.372H36.522Zm0,4.928h3.194a2.172,2.172,0,0,0,1.4-.372,1.628,1.628,0,0,0,.448-1.312,1.39,1.39,0,0,0-.448-1.134,2.456,2.456,0,0,0-1.569-.372H36.522Zm9.7-8.189V13h2.746v1.879Zm.206,9.944V18.194H45.1l.224-1.773h3.624v8.4ZM54.6,25a3.063,3.063,0,0,1-2.279-.762,2.877,2.877,0,0,1-.728-2.074v-3.9H50.346V16.421H51.6V14.613l2.522-.709v2.517H56.36l-.149,1.843H54.119V22a1.16,1.16,0,0,0,.336.957,1.77,1.77,0,0,0,1.046.248,3.588,3.588,0,0,0,1.083-.177v1.648a4.107,4.107,0,0,1-.9.23A6.058,6.058,0,0,1,54.6,25Zm3.274-.177V13.408H66.34v1.861H60.4v2.925h5.249v1.843H60.4v4.786ZM71.591,25a5.043,5.043,0,0,1-3.643-1.134,4.373,4.373,0,0,1-1.158-3.244A4.312,4.312,0,0,1,67.948,17.4a5.033,5.033,0,0,1,3.643-1.152A4.993,4.993,0,0,1,75.233,17.4a4.272,4.272,0,0,1,1.177,3.226,4.373,4.373,0,0,1-1.158,3.244A5.073,5.073,0,0,1,71.591,25Zm0-2.038a2.423,2.423,0,0,0,1.737-.514,2.563,2.563,0,0,0,.523-1.826,2.494,2.494,0,0,0-.523-1.808,2.369,2.369,0,0,0-1.737-.532,2.339,2.339,0,0,0-1.718.532,2.494,2.494,0,0,0-.523,1.808,2.562,2.562,0,0,0,.523,1.826A2.392,2.392,0,0,0,71.591,22.962Zm6.573,1.861v-8.4H80.5l.112.868a7.317,7.317,0,0,1,1.476-.638,8.971,8.971,0,0,1,1.756-.408v1.808q-.5.071-1.1.213t-1.139.319a6.1,6.1,0,0,0-.915.372v5.867ZM89.381,25a5.653,5.653,0,0,1-3.643-1.081A4.03,4.03,0,0,1,84.394,20.6a4.4,4.4,0,0,1,1.121-3.173A4.476,4.476,0,0,1,88.9,16.244a4.39,4.39,0,0,1,3.138,1.028,3.437,3.437,0,0,1,1.1,2.659v1.524H86.728a1.828,1.828,0,0,0,.971,1.382,5.262,5.262,0,0,0,2.2.372,8.562,8.562,0,0,0,1.438-.124,6.912,6.912,0,0,0,1.27-.319v1.7a5.833,5.833,0,0,1-1.438.39A10.573,10.573,0,0,1,89.381,25Zm-2.653-5.016h4.2v-.461a1.457,1.457,0,0,0-.448-1.134,2.17,2.17,0,0,0-1.513-.425,2.535,2.535,0,0,0-1.756.479A2.092,2.092,0,0,0,86.728,19.984Zm6.745,4.839,3.4-4.272L93.6,16.421h2.727l1.905,2.446,1.905-2.446h2.727l-3.25,4.13L103,24.823h-2.746l-2.017-2.57-2.017,2.57Z"/>
  </g>
</svg>
