<svg xmlns="http://www.w3.org/2000/svg" width="271.65" height="41.91" viewBox="0 0 271.65 41.91">
  <g id="pancakeswap-cake-seeklogo.com" transform="translate(-13 -46.5)">
    <path id="Path_444" data-name="Path 444" d="M44.7,74.827a2.628,2.628,0,0,1-1.357-.339A2.452,2.452,0,0,1,43,73.3v-19a1.978,1.978,0,0,1,.339-1.188A1.67,1.67,0,0,1,44.7,52.6h7.975c3.054,0,5.26.679,6.787,1.866a7.792,7.792,0,0,1,2.206,5.769c0,2.545-.679,4.412-2.206,5.769-1.357,1.188-3.733,1.866-6.787,1.866H49.617v5.26a1.978,1.978,0,0,1-.339,1.188c-.339.339-.679.339-1.357.339H44.7ZM52.162,63.12a2.7,2.7,0,0,0,2.036-.679,2.879,2.879,0,0,0,.679-2.206A2.879,2.879,0,0,0,54.2,58.03a2.7,2.7,0,0,0-2.036-.679H49.617V63.12Z" transform="translate(20.903 4.25)"/>
    <path id="Path_445" data-name="Path 445" d="M61.287,72.9a6.276,6.276,0,0,1-4.921-2.036,8.245,8.245,0,0,1-1.866-5.6,8.607,8.607,0,0,1,1.188-4.751,9.392,9.392,0,0,1,3.563-3.224,13.285,13.285,0,0,1,5.26-1.188,17.509,17.509,0,0,1,4.412.509,13.3,13.3,0,0,1,3.563,1.527V71.2a.78.78,0,0,1-1.018,1.018H68.074c-.17,0-.509,0-.509-.17l-.339-.339-.509-1.018a7.56,7.56,0,0,1-5.43,2.206Zm2.375-4.412a2.7,2.7,0,0,0,2.036-.679,1.967,1.967,0,0,0,.679-1.7v-5.09a4.052,4.052,0,0,0-1.527-.339,3.164,3.164,0,0,0-2.715,1.188,5.066,5.066,0,0,0-1.018,3.394C61.117,67.3,61.966,68.486,63.662,68.486Z" transform="translate(28.915 6.689)"/>
    <path id="Path_446" data-name="Path 446" d="M68.5,72.319a2.628,2.628,0,0,1-1.357-.339,1.432,1.432,0,0,1-.339-1.188V57.557a.78.78,0,0,1,1.018-1.018h3.394c.339,0,.509,0,.509.17.17,0,.17.17.339.339l.17,1.018a5.47,5.47,0,0,1,2.375-1.357A10.2,10.2,0,0,1,78,56.2a5.55,5.55,0,0,1,5.939,5.939v8.653A1.977,1.977,0,0,1,83.6,71.98c-.17.339-.679.339-1.357.339H79.017a2.628,2.628,0,0,1-1.357-.339,1.432,1.432,0,0,1-.339-1.188V62.478c0-.679-.17-1.188-.509-1.357a1.67,1.67,0,0,0-1.357-.509,2.074,2.074,0,0,0-1.527.509,1.927,1.927,0,0,0-.509,1.357v8.144a1.978,1.978,0,0,1-.339,1.188c-.17.339-.679.339-1.357.339H68.5Z" transform="translate(37.485 6.758)"/>
    <path id="Path_447" data-name="Path 447" d="M87.671,72.828c-3.054,0-5.43-.679-7.126-2.206A7.352,7.352,0,0,1,78,64.514,7.835,7.835,0,0,1,79.188,60.1a7.648,7.648,0,0,1,3.224-2.884A12.4,12.4,0,0,1,87.5,56.2a11.661,11.661,0,0,1,3.733.509,6.821,6.821,0,0,1,2.715,1.357c.17.17.339.339.339.509s-.17.339-.339.679L92.592,61.63q-.254.509-.509.509c-.17,0-.339-.17-.679-.339a7.926,7.926,0,0,0-1.7-.848,6.1,6.1,0,0,0-1.866-.339,3.853,3.853,0,0,0-2.715,1.018,4.6,4.6,0,0,0,0,5.769,3.582,3.582,0,0,0,2.715,1.018,6.1,6.1,0,0,0,1.866-.339,7.926,7.926,0,0,0,1.7-.848c.339-.17.509-.339.679-.339s.339.17.509.509l1.527,2.545a.623.623,0,0,1,.17.509c0,.17-.17.339-.339.509A12.731,12.731,0,0,1,90.9,72.319,6.945,6.945,0,0,1,87.671,72.828Z" transform="translate(45.289 6.758)"/>
    <path id="Path_448" data-name="Path 448" d="M95.587,72.9a6.276,6.276,0,0,1-4.921-2.036,8.245,8.245,0,0,1-1.866-5.6,8.607,8.607,0,0,1,1.188-4.751,9.392,9.392,0,0,1,3.563-3.224,13.285,13.285,0,0,1,5.26-1.188,17.509,17.509,0,0,1,4.412.509,13.3,13.3,0,0,1,3.563,1.527V71.2a.78.78,0,0,1-1.018,1.018h-3.394c-.17,0-.509,0-.509-.17l-.339-.339-.509-1.018a6.457,6.457,0,0,1-2.206,1.527A6.067,6.067,0,0,1,95.587,72.9Zm2.545-4.412a2.7,2.7,0,0,0,2.036-.679,1.967,1.967,0,0,0,.679-1.7v-5.09a4.052,4.052,0,0,0-1.527-.339,3.164,3.164,0,0,0-2.715,1.188,5.066,5.066,0,0,0-1.018,3.394C95.417,67.3,96.266,68.486,98.132,68.486Z" transform="translate(52.814 6.689)"/>
    <path id="Path_449" data-name="Path 449" d="M118.916,73.64a.681.681,0,0,1-.509,1.188h-5.769c-.17,0-.339-.17-.509-.339l-4.412-6.108v4.751a1.978,1.978,0,0,1-.339,1.188c-.339.339-.679.339-1.357.339H102.8a2.629,2.629,0,0,1-1.357-.339,2.452,2.452,0,0,1-.339-1.188V54.3a1.978,1.978,0,0,1,.339-1.188A1.67,1.67,0,0,1,102.8,52.6h3.224a1.67,1.67,0,0,1,1.357.509,1.432,1.432,0,0,1,.339,1.188V65.156l4.242-5.6c.17-.17.339-.339.509-.339s.339-.17.679-.17h5.09a.722.722,0,0,1,.509,1.188l-5.6,6.448Z" transform="translate(61.384 4.25)"/>
    <path id="Path_450" data-name="Path 450" d="M121.7,72.758a14.944,14.944,0,0,1-4.921-.848,8.932,8.932,0,0,1-3.394-2.715,7.476,7.476,0,0,1-1.188-4.412,8.179,8.179,0,0,1,2.375-6.278c1.527-1.527,3.9-2.206,6.787-2.206s5.09.679,6.448,2.206c1.527,1.357,2.206,3.394,2.206,5.939,0,1.018-.509,1.7-1.357,1.7H118.478a2.521,2.521,0,0,0,1.018,2.206,5.7,5.7,0,0,0,3.224.679,8.293,8.293,0,0,0,2.206-.17c.679-.17,1.188-.509,1.866-.679a1.313,1.313,0,0,1,.509-.17c.17,0,.339.17.509.339L129,70.383a.623.623,0,0,1,.17.509c0,.17-.17.339-.339.509a12.732,12.732,0,0,1-3.054,1.357A32.573,32.573,0,0,0,121.7,72.758Zm2.545-10.181a2.114,2.114,0,0,0-.679-1.866,3.924,3.924,0,0,0-4.412,0,2.317,2.317,0,0,0-.679,1.866Z" transform="translate(69.118 6.828)"/>
    <path id="Path_451" data-name="Path 451" d="M133.371,75.406a26.344,26.344,0,0,1-5.26-.509,10.409,10.409,0,0,1-3.9-1.7.909.909,0,0,1-.509-.679.623.623,0,0,1,.17-.509l1.527-2.545c.17-.339.339-.339.509-.339a.623.623,0,0,1,.509.17,13.135,13.135,0,0,0,2.715,1.188,9.608,9.608,0,0,0,3.054.509,3.85,3.85,0,0,0,2.206-.509,1.654,1.654,0,0,0,.679-1.527,1.782,1.782,0,0,0-.848-1.527,13.737,13.737,0,0,0-3.054-1.357,17.563,17.563,0,0,1-5.09-2.715,5.515,5.515,0,0,1-1.866-4.242,5.81,5.81,0,0,1,2.375-4.921,9.666,9.666,0,0,1,6.108-1.7,17.075,17.075,0,0,1,4.581.509,11.506,11.506,0,0,1,3.224,1.357c.339.339.509.509.509.848a.623.623,0,0,1-.17.509l-1.527,2.545c-.17.339-.339.339-.509.339a.623.623,0,0,1-.509-.17,7.68,7.68,0,0,0-4.581-1.188,3.85,3.85,0,0,0-2.206.509,1.654,1.654,0,0,0-.679,1.527,2.452,2.452,0,0,0,.339,1.188c.339.339.679.509,1.018.848.509.17,1.188.509,2.036.848l.679.17a18.958,18.958,0,0,1,3.733,1.866,5.515,5.515,0,0,1,2.206,2.206,5.811,5.811,0,0,1,.679,3.054,5.267,5.267,0,0,1-2.206,4.581A11.7,11.7,0,0,1,133.371,75.406Z" transform="translate(77.13 4.181)"/>
    <path id="Path_452" data-name="Path 452" d="M140.66,72.18c-.339,0-.509,0-.679-.17a.881.881,0,0,1-.339-.679L135.4,57.248v-.339c0-.339.17-.509.679-.509h4.242c.339,0,.509,0,.679.17a1.3,1.3,0,0,1,.339.509l1.7,7.466,2.206-5.939c.17-.339.17-.509.339-.509.17-.17.339-.17.679-.17H148.3c.339,0,.509,0,.679.17s.17.339.339.509l2.206,5.939,1.866-7.466c0-.17.17-.339.339-.509a.623.623,0,0,1,.509-.17h4.412c.509,0,.679.17.679.509v.339l-4.242,14.083c-.17.339-.17.509-.339.679s-.339.17-.679.17H150.84c-.339,0-.509,0-.679-.17a.882.882,0,0,1-.339-.679l-2.206-5.939-2.206,5.939c-.17.339-.17.509-.339.679s-.339.17-.679.17Z" transform="translate(85.282 6.898)"/>
    <path id="Path_453" data-name="Path 453" d="M156.887,72.9a6.276,6.276,0,0,1-4.921-2.036,8.245,8.245,0,0,1-1.866-5.6,8.608,8.608,0,0,1,1.188-4.751,9.392,9.392,0,0,1,3.563-3.224,13.285,13.285,0,0,1,5.26-1.188,17.509,17.509,0,0,1,4.412.509,13.3,13.3,0,0,1,3.563,1.527V71.2a.78.78,0,0,1-1.018,1.018h-3.394a.623.623,0,0,1-.509-.17l-.339-.339-.509-1.018a6.456,6.456,0,0,1-2.206,1.527A6.067,6.067,0,0,1,156.887,72.9Zm2.545-4.412a2.7,2.7,0,0,0,2.036-.679,1.967,1.967,0,0,0,.679-1.7v-5.09a4.052,4.052,0,0,0-1.527-.339,3.164,3.164,0,0,0-2.715,1.188,5.066,5.066,0,0,0-1.018,3.394C156.717,67.3,157.566,68.486,159.432,68.486Z" transform="translate(95.525 6.689)"/>
    <path id="Path_454" data-name="Path 454" d="M164.1,78.867a2.629,2.629,0,0,1-1.357-.339,2.452,2.452,0,0,1-.339-1.188V58.675a10.847,10.847,0,0,1,3.733-1.7,14.291,14.291,0,0,1,4.581-.679c6.617,0,9.841,2.715,9.841,8.314a8.855,8.855,0,0,1-2.036,6.108c-1.357,1.527-3.393,2.206-5.939,2.206a8.516,8.516,0,0,1-2.036-.339,5.081,5.081,0,0,1-1.7-.679v5.43a1.978,1.978,0,0,1-.339,1.188c-.339.339-.679.339-1.357.339Zm7.126-10.52a2.052,2.052,0,0,0,2.036-1.018,4.855,4.855,0,0,0,.679-2.884,5.038,5.038,0,0,0-.848-3.054,3.512,3.512,0,0,0-2.545-.848,4.258,4.258,0,0,0-1.7.339v5.09a2.32,2.32,0,0,0,2.375,2.375Z" transform="translate(104.095 6.828)"/>
    <path id="Path_455" data-name="Path 455" d="M20.635,53.117A5.565,5.565,0,1,1,31.664,52.1v6.787h4.581V52.1a5.565,5.565,0,1,1,11.029,1.018l-1.527,7.975C50.838,63.3,54.74,67.2,54.74,72.121v2.884c0,4.072-2.715,7.466-6.448,9.671A27.156,27.156,0,0,1,33.87,88.41a27.156,27.156,0,0,1-14.422-3.733C15.715,82.471,13,79.078,13,75.005V72.121c0-4.921,3.9-8.823,8.993-11.029ZM43.881,62.28l1.7-9.332a3.853,3.853,0,1,0-7.635-.679v8.653c-.509,0-1.188-.17-1.7-.17H34.04a11.2,11.2,0,0,0-2.375.17c-.509,0-1.188.17-1.7.17V52.439a3.853,3.853,0,1,0-7.635.679l1.7,9.5c-5.43,2.036-9.162,5.769-9.162,10.011v2.884c0,6.448,8.484,11.708,19,11.708s19-5.26,19-11.708V72.63C53.043,68.049,49.31,64.316,43.881,62.28Z" transform="translate(0 0)" fill="#633001" fill-rule="evenodd"/>
    <path id="Path_456" data-name="Path 456" d="M52.207,64.584c0,6.448-8.484,11.708-19,11.708s-19-5.26-19-11.708V61.7H52.377v2.884Z" transform="translate(0.836 10.591)" fill="#fedc90"/>
    <path id="Path_457" data-name="Path 457" d="M21.426,52.081a3.853,3.853,0,1,1,7.635-.679v8.823a32.95,32.95,0,0,1,4.072-.339c1.357,0,2.715.17,3.9.17V51.4a3.853,3.853,0,1,1,7.635.679l-1.7,9.332c5.6,2.036,9.332,5.769,9.332,10.011,0,6.448-8.484,11.708-19,11.708s-19-5.26-19-11.708c0-4.242,3.733-7.975,9.162-10.011Z" transform="translate(0.906 0.697)" fill="#d1884f" fill-rule="evenodd"/>
    <path id="Path_458" data-name="Path 458" d="M23.972,62.524c0,1.7-1.018,3.224-2.036,3.224S19.9,64.39,19.9,62.524c0-1.7,1.018-3.224,2.036-3.224S23.972,60.657,23.972,62.524Z" transform="translate(4.808 8.918)" fill="#633001"/>
    <path id="Path_459" data-name="Path 459" d="M32.572,62.524c0,1.7-1.018,3.224-2.036,3.224-1.188,0-2.036-1.357-2.036-3.224,0-1.7,1.018-3.224,2.036-3.224S32.572,60.657,32.572,62.524Z" transform="translate(10.8 8.918)" fill="#633001"/>
  </g>
</svg>
