<svg xmlns="http://www.w3.org/2000/svg" width="194.383" height="45.333" viewBox="0 0 194.383 45.333">
  <g id="Group_1204" data-name="Group 1204" transform="translate(982.499 -316.29)">
    <path id="Path_460" data-name="Path 460" d="M-746.029,375.494a2.442,2.442,0,0,1,2.5-2.382,2.443,2.443,0,0,1,2.382,2.5A2.443,2.443,0,0,1-743.586,378a2.476,2.476,0,0,1-2.443-2.5m30.086-19.484v4.95h-7.443c-2.512,0-4.248.58-5.209,1.723a7.452,7.452,0,0,0-1.4,4.96q0,3.717,2.278,5.431a5.7,5.7,0,0,0,2.024.925,13.372,13.372,0,0,0,3.047.263h6.7v4.96h-8.513a16.561,16.561,0,0,1-5.44-.716,8.337,8.337,0,0,1-3.536-2.475,12.376,12.376,0,0,1-2.93-8.486q0-6.2,3.489-9.248a8.2,8.2,0,0,1,3.349-1.768,20.381,20.381,0,0,1,5.07-.517h8.512Zm15.209-.335q6.28,0,9.256,3.717a13.1,13.1,0,0,1,2.744,8.532,11.346,11.346,0,0,1-3.445,8.677q-3.164,2.951-8.651,2.956-5.677,0-8.885-3.336-2.977-3.006-2.977-8.777a11.839,11.839,0,0,1,2.838-8.1q3.167-3.631,9.121-3.672m.047,4.86q-5.629,0-5.629,7.154a8.6,8.6,0,0,0,.93,4.433,5.144,5.144,0,0,0,4.744,2.575q5.531,0,5.531-7.108,0-6.949-5.577-7.054m16.557-4.524h22.884a17.965,17.965,0,0,1,4.745.472,6.037,6.037,0,0,1,2.744,1.668,9.123,9.123,0,0,1,2.046,6.292v14.779h-6.232V365.448a13.222,13.222,0,0,0-.14-2.339,2.351,2.351,0,0,0-.651-1.188,4.01,4.01,0,0,0-2.93-.961h-3.3V379.22H-671.2V360.96h-6.7V379.22h-6.232Zm-97.461,11.6-8.984-11.9h7.138l5.374,7.925,5.826-7.925h7.056l-9.272,11.9,9.272,12.14h-6.851l-6.031-8.251-5.907,8.251H-790.9ZM-756.073,360h-10.511l3.645-4.289h21.76V360h-9.067v19.747h-5.826V360Z" transform="translate(-136.421 -28.043)" fill="#ffbe40"/>
    <path id="Path_461" data-name="Path 461" d="M-635.078,418.608a2.442,2.442,0,0,1,2.5-2.382,2.442,2.442,0,0,1,2.382,2.5,2.442,2.442,0,0,1-2.441,2.382,2.476,2.476,0,0,1-2.443-2.5" transform="translate(-247.372 -71.157)" fill="#ffbe40"/>
    <path id="Path_462" data-name="Path 462" d="M-959.662,361.622a22.666,22.666,0,0,1-22.836-22.5A22.667,22.667,0,0,1-960,316.29a22.667,22.667,0,0,1,22.837,22.5c0,.056,0,.113,0,.17a22.609,22.609,0,0,1-22.5,22.667m0-41.97a19.3,19.3,0,0,0-19.443,19.164,19.3,19.3,0,0,0,19.164,19.443A19.3,19.3,0,0,0-940.5,339.1c0-.046,0-.093,0-.14a19.258,19.258,0,0,0-19.164-19.3m.809,16.193,4.343-5.313a1.306,1.306,0,0,0-.186-1.837,1.307,1.307,0,0,0-.8-.294,1.293,1.293,0,0,0-.985.462l-4.04,4.932-4.04-4.932a1.247,1.247,0,0,0-.985-.462h-3.333a1.3,1.3,0,0,0-1.286,1.31,1.3,1.3,0,0,0,.3.821l6.01,7.344-7.676,9.393a1.291,1.291,0,0,0,.115,1.822,1.291,1.291,0,0,0,1.822-.115l.033-.039,7.372-9Zm10.073-7.444a1.3,1.3,0,0,0-.985.462l-7.344,9.012-3.333,4.08-4.343,5.313a1.291,1.291,0,0,0,.15,1.819,1.291,1.291,0,0,0,1.819-.15l4.04-4.923,4.039,4.923a1.25,1.25,0,0,0,.985.462h3.327a1.3,1.3,0,0,0,1.289-1.3,1.3,1.3,0,0,0-.3-.826l-6.009-7.335,7.676-9.4a1.314,1.314,0,0,0-.212-1.846,1.313,1.313,0,0,0-.8-.285" transform="translate(0 0)" fill="#ffbe40"/>
  </g>
</svg>
